<?xml version="1.0" encoding="UTF-8" standalone="no"?>
<svg
   version="1.1"
   width="297.002200mm"
   height="210.007200mm"
   viewBox="0.000000 0.000000 297.002200 210.007200"
   id="svg137"
   sodipodi:docname="stencil.svg"
   inkscape:version="1.4 (e7c3feb100, 2024-10-09)"
   xmlns:inkscape="http://www.inkscape.org/namespaces/inkscape"
   xmlns:sodipodi="http://sodipodi.sourceforge.net/DTD/sodipodi-0.dtd"
   xmlns="http://www.w3.org/2000/svg"
   xmlns:svg="http://www.w3.org/2000/svg"
   xmlns:rdf="http://www.w3.org/1999/02/22-rdf-syntax-ns#"
   xmlns:cc="http://creativecommons.org/ns#"
   xmlns:dc="http://purl.org/dc/elements/1.1/">
  <defs
     id="defs137" />
  <sodipodi:namedview
     id="namedview137"
     pagecolor="#ffffff"
     bordercolor="#666666"
     borderopacity="1.0"
     inkscape:showpageshadow="2"
     inkscape:pageopacity="0.0"
     inkscape:pagecheckerboard="0"
     inkscape:deskcolor="#d1d1d1"
     inkscape:document-units="mm"
     inkscape:zoom="27.193735"
     inkscape:cx="429.12458"
     inkscape:cy="407.22615"
     inkscape:window-width="1920"
     inkscape:window-height="1029"
     inkscape:window-x="0"
     inkscape:window-y="27"
     inkscape:window-maximized="1"
     inkscape:current-layer="svg137" />
  <title
     id="title1">SVG Image created as bigbro_box-F_Paste.svg date 2025/02/27 19:28:33 </title>
  <desc
     id="desc1">Image generated by PCBNEW </desc>
  <path
     style="fill:#000000;fill-opacity:1;fill-rule:evenodd;stroke:none;stroke-linecap:round;stroke-linejoin:round;stroke-opacity:1"
     d="m 105.64275,110.99922 -0.0166,0.0834 -0.0472,0.0707 -0.0707,0.0472 -0.0834,0.0166 h -0.43574 l -0.0834,-0.0166 -0.0707,-0.0472 -0.0472,-0.0707 -0.0166,-0.0834 v -0.51044 l 0.0166,-0.0834 0.0472,-0.0707 0.0707,-0.0472 0.0834,-0.0166 h 0.43575 l 0.0834,0.0166 0.0707,0.0472 0.0472,0.0707 0.0166,0.0834 z"
     id="path1" />
  <path
     style="fill:#000000;fill-opacity:1;fill-rule:evenodd;stroke:none;stroke-linecap:round;stroke-linejoin:round;stroke-opacity:1"
     d="m 104.06775,110.99922 -0.0166,0.0834 -0.0472,0.0707 -0.0707,0.0472 -0.0834,0.0166 h -0.43574 l -0.0834,-0.0166 -0.0707,-0.0472 -0.0472,-0.0707 -0.0166,-0.0834 v -0.51044 l 0.0166,-0.0834 0.0472,-0.0707 0.0707,-0.0472 0.0834,-0.0166 h 0.43574 l 0.0834,0.0166 0.0707,0.0472 0.0472,0.0707 0.0166,0.0834 z"
     id="path2" />
  <path
     style="fill:#000000;fill-opacity:1;fill-rule:evenodd;stroke:none;stroke-linecap:round;stroke-linejoin:round;stroke-opacity:1"
     d="m 103.904,80.247 v -1.494 h 1.992 v 1.494 z"
     id="path3" />
  <path
     style="fill:#000000;fill-opacity:1;fill-rule:evenodd;stroke:none;stroke-linecap:round;stroke-linejoin:round;stroke-opacity:1"
     d="m 103.904,82.547 v -1.494 h 1.992 v 1.494 z"
     id="path4" />
  <path
     style="fill:#000000;fill-opacity:1;fill-rule:evenodd;stroke:none;stroke-linecap:round;stroke-linejoin:round;stroke-opacity:1"
     d="m 110.204,83.6924 v -3.7848 h 1.992 v 3.7848 z"
     id="path5" />
  <path
     style="fill:#000000;fill-opacity:1;fill-rule:evenodd;stroke:none;stroke-linecap:round;stroke-linejoin:round;stroke-opacity:1"
     d="m 103.904,84.847 v -1.494 h 1.992 v 1.494 z"
     id="path6" />
  <path
     style="fill:#000000;fill-opacity:1;fill-rule:evenodd;stroke:none;stroke-linecap:round;stroke-linejoin:round;stroke-opacity:1"
     d="m 137.00882,62.96265 0.0834,0.01659 0.0707,0.04723 0.0472,0.07068 0.0166,0.08338 v 0.435749 l -0.0166,0.08338 -0.0472,0.07068 -0.0707,0.04723 -0.0834,0.01658 -0.51045,1e-6 -0.0834,-0.01658 -0.0707,-0.04723 -0.0472,-0.07068 -0.0166,-0.08338 v -0.435749 l 0.0166,-0.08338 0.0472,-0.07068 0.0707,-0.04723 0.0834,-0.01658 z"
     id="path7" />
  <path
     style="fill:#000000;fill-opacity:1;fill-rule:evenodd;stroke:none;stroke-linecap:round;stroke-linejoin:round;stroke-opacity:1"
     d="m 137.00882,64.53765 0.0834,0.01659 0.0707,0.04723 0.0472,0.07068 0.0166,0.08338 v 0.435749 l -0.0166,0.08338 -0.0472,0.07068 -0.0707,0.04723 -0.0834,0.01658 -0.51045,10e-7 -0.0834,-0.01658 -0.0707,-0.04723 -0.0472,-0.07068 -0.0166,-0.08338 v -0.435749 l 0.0166,-0.08338 0.0472,-0.07068 0.0707,-0.04723 0.0834,-0.01658 z"
     id="path8" />
  <path
     style="fill:#000000;fill-opacity:1;fill-rule:evenodd;stroke:none;stroke-linecap:round;stroke-linejoin:round;stroke-opacity:1"
     d="m 116.91225,62.736775 0.0166,-0.08338 0.0472,-0.07068 0.0707,-0.04723 0.0834,-0.01658 0.43575,-10e-7 0.0834,0.01658 0.0707,0.04723 0.0472,0.07068 0.0166,0.08338 v 0.510449 l -0.0166,0.08338 -0.0472,0.07068 -0.0707,0.04723 -0.0834,0.01658 -0.43574,10e-7 -0.0834,-0.01658 -0.0707,-0.04723 -0.0472,-0.07068 -0.0166,-0.08338 z"
     id="path9" />
  <path
     style="fill:#000000;fill-opacity:1;fill-rule:evenodd;stroke:none;stroke-linecap:round;stroke-linejoin:round;stroke-opacity:1"
     d="m 118.48725,62.736775 0.0166,-0.08338 0.0472,-0.07068 0.0707,-0.04723 0.0834,-0.01658 0.43574,-10e-7 0.0834,0.01658 0.0707,0.04723 0.0472,0.07068 0.0166,0.08338 v 0.510449 l -0.0166,0.08338 -0.0472,0.07068 -0.0707,0.04723 -0.0834,0.01658 -0.43575,10e-7 -0.0834,-0.01658 -0.0707,-0.04723 -0.0472,-0.07068 -0.0166,-0.08338 z"
     id="path10" />
  <path
     style="fill:#000000;fill-opacity:1;fill-rule:evenodd;stroke:none;stroke-linecap:round;stroke-linejoin:round;stroke-opacity:1"
     d="m 108.453,105.1898 0.0858,0.0171 0.0727,0.0486 0.0486,0.0727 0.0171,0.0858 v 0.4482 l -0.0171,0.0858 -0.0486,0.0727 -0.0727,0.0486 -0.0858,0.0171 h -0.498 l -0.0858,-0.0171 -0.0727,-0.0486 -0.0486,-0.0727 -0.0171,-0.0858 v -0.4482 l 0.0171,-0.0858 0.0486,-0.0727 0.0727,-0.0486 0.0858,-0.0171 z"
     id="path11" />
  <path
     style="fill:#000000;fill-opacity:1;fill-rule:evenodd;stroke:none;stroke-linecap:round;stroke-linejoin:round;stroke-opacity:1"
     d="m 108.453,106.7398 0.0858,0.0171 0.0727,0.0486 0.0486,0.0727 0.0171,0.0858 v 0.4482 l -0.0171,0.0858 -0.0486,0.0727 -0.0727,0.0486 -0.0858,0.0171 h -0.498 l -0.0858,-0.0171 -0.0727,-0.0486 -0.0486,-0.0727 -0.0171,-0.0858 v -0.4482 l 0.0171,-0.0858 0.0486,-0.0727 0.0727,-0.0486 0.0858,-0.0171 z"
     id="path12" />
  <path
     style="fill:#000000;fill-opacity:1;fill-rule:evenodd;stroke:none;stroke-linecap:round;stroke-linejoin:round;stroke-opacity:1"
     d="m 129.3296,62.8298 h 0.7968 v 0.8964 h -0.7968 z"
     id="path13" />
  <path
     style="fill:#000000;fill-opacity:1;fill-rule:evenodd;stroke:none;stroke-linecap:round;stroke-linejoin:round;stroke-opacity:1"
     d="m 127.4296,62.8298 h 0.7968 v 0.8964 h -0.7968 z"
     id="path14" />
  <path
     style="fill:#000000;fill-opacity:1;fill-rule:evenodd;stroke:none;stroke-linecap:round;stroke-linejoin:round;stroke-opacity:1"
     d="m 128.3796,64.8298 h 0.7968 v 0.8964 h -0.7968 z"
     id="path15" />
  <path
     style="fill:#000000;fill-opacity:1;fill-rule:evenodd;stroke:none;stroke-width:3.07767;stroke-linecap:round;stroke-linejoin:round;stroke-opacity:1"
     d="m 124.77229,71.002034 h 17.34559 v 0.731319 h -17.34559 z"
     id="path23" />
  <path
     style="fill:#000000;fill-opacity:1;fill-rule:evenodd;stroke:none;stroke-width:2.70687;stroke-linecap:round;stroke-linejoin:round;stroke-opacity:1"
     d="M 123.53921,86.347808 V 73.994979 h 0.79437 v 12.352829 z"
     id="path34" />
  <path
     style="fill:#000000;fill-opacity:1;fill-rule:evenodd;stroke:none;stroke-width:2.15167;stroke-linecap:round;stroke-linejoin:round;stroke-opacity:1"
     d="m 133.25086,78.347935 h 2.29392 v 2.207344 h -2.29392 z"
     id="path58" />
  <path
     style="fill:#000000;fill-opacity:1;fill-rule:evenodd;stroke:none;stroke-linecap:round;stroke-linejoin:round;stroke-opacity:1"
     d="m 105.87125,96.521225 -0.0166,0.08338 -0.0472,0.07068 -0.0707,0.04723 -0.0834,0.01658 -0.43575,10e-7 -0.0834,-0.01658 -0.0707,-0.04723 -0.0472,-0.07068 -0.0166,-0.08338 v -0.510449 l 0.0166,-0.08338 0.0472,-0.07068 0.0707,-0.04723 0.0834,-0.01658 0.43574,-10e-7 0.0834,0.01658 0.0707,0.04723 0.0472,0.07068 0.0166,0.08338 z"
     id="path63" />
  <path
     style="fill:#000000;fill-opacity:1;fill-rule:evenodd;stroke:none;stroke-linecap:round;stroke-linejoin:round;stroke-opacity:1"
     d="m 104.29625,96.521225 -0.0166,0.08338 -0.0472,0.07068 -0.0707,0.04723 -0.0834,0.01658 -0.43575,10e-7 -0.0834,-0.01658 -0.0707,-0.04723 -0.0472,-0.07068 -0.0166,-0.08338 v -0.510449 l 0.0166,-0.08338 0.0472,-0.07068 0.0707,-0.04723 0.0834,-0.01658 0.43574,-10e-7 0.0834,0.01658 0.0707,0.04723 0.0472,0.07068 0.0166,0.08338 z"
     id="path64" />
  <path
     style="fill:#000000;fill-opacity:1;fill-rule:evenodd;stroke:none;stroke-linecap:round;stroke-linejoin:round;stroke-opacity:1"
     d="m 116.60345,60.83385 -0.0905,-0.01801 -0.0768,-0.05128 -0.0513,-0.07674 -0.018,-0.09052 v -0.5976 l 0.018,-0.09052 0.0513,-0.07674 0.0768,-0.05128 0.0905,-0.01801 h 0.4731 l 0.0905,0.01801 0.0768,0.05128 0.0513,0.07674 0.018,0.09052 v 0.5976 l -0.018,0.09052 -0.0513,0.07674 -0.0768,0.05128 -0.0905,0.01801 z"
     id="path65" />
  <path
     style="fill:#000000;fill-opacity:1;fill-rule:evenodd;stroke:none;stroke-linecap:round;stroke-linejoin:round;stroke-opacity:1"
     d="m 116.60345,59.10885 -0.0905,-0.01801 -0.0768,-0.05128 -0.0513,-0.07674 -0.018,-0.09052 v -0.5976 l 0.018,-0.09052 0.0513,-0.07674 0.0768,-0.05128 0.0905,-0.01801 h 0.4731 l 0.0905,0.01801 0.0768,0.05128 0.0513,0.07674 0.018,0.09052 v 0.5976 l -0.018,0.09052 -0.0513,0.07674 -0.0768,0.05128 -0.0905,0.01801 z"
     id="path66" />
  <path
     style="fill:#000000;fill-opacity:1;fill-rule:evenodd;stroke:none;stroke-linecap:round;stroke-linejoin:round;stroke-opacity:1"
     d="m 118.6616,64.4163 h 0.7968 v 0.8964 h -0.7968 z"
     id="path67" />
  <path
     style="fill:#000000;fill-opacity:1;fill-rule:evenodd;stroke:none;stroke-linecap:round;stroke-linejoin:round;stroke-opacity:1"
     d="m 116.7616,64.4163 h 0.7968 v 0.8964 h -0.7968 z"
     id="path68" />
  <path
     style="fill:#000000;fill-opacity:1;fill-rule:evenodd;stroke:none;stroke-linecap:round;stroke-linejoin:round;stroke-opacity:1"
     d="m 117.7116,66.4163 h 0.7968 v 0.8964 h -0.7968 z"
     id="path69" />
  <path
     style="fill:#000000;fill-opacity:1;fill-rule:evenodd;stroke:none;stroke-linecap:round;stroke-linejoin:round;stroke-opacity:1"
     d="m 135.8774,110.983 v -1.494 h 1.494 v 1.494 z"
     id="path84" />
  <path
     style="fill:#000000;fill-opacity:1;fill-rule:evenodd;stroke:none;stroke-linecap:round;stroke-linejoin:round;stroke-opacity:1"
     d="m 143.6774,110.983 v -1.494 h 1.494 v 1.494 z"
     id="path85" />
  <path
     style="fill:#000000;fill-opacity:1;fill-rule:evenodd;stroke:none;stroke-linecap:round;stroke-linejoin:round;stroke-opacity:1"
     d="m 105.20275,93.724775 0.0166,-0.08338 0.0472,-0.07068 0.0707,-0.04723 0.0834,-0.01658 0.43575,-10e-7 0.0834,0.01658 0.0707,0.04723 0.0472,0.07068 0.0166,0.08338 v 0.510449 l -0.0166,0.08338 -0.0472,0.07068 -0.0707,0.04723 -0.0834,0.01658 -0.43574,10e-7 -0.0834,-0.01659 -0.0707,-0.04723 -0.0472,-0.07068 -0.0166,-0.08338 z"
     id="path86" />
  <path
     style="fill:#000000;fill-opacity:1;fill-rule:evenodd;stroke:none;stroke-linecap:round;stroke-linejoin:round;stroke-opacity:1"
     d="m 106.77775,93.724775 0.0166,-0.08338 0.0472,-0.07068 0.0707,-0.04723 0.0834,-0.01658 0.43575,-10e-7 0.0834,0.01658 0.0707,0.04723 0.0472,0.07068 0.0166,0.08338 v 0.510449 l -0.0166,0.08338 -0.0472,0.07068 -0.0707,0.04723 -0.0834,0.01658 -0.43574,10e-7 -0.0834,-0.01659 -0.0707,-0.04723 -0.0472,-0.07068 -0.0166,-0.08338 z"
     id="path87" />
  <path
     style="fill:#000000;fill-opacity:1;fill-rule:evenodd;stroke:none;stroke-linecap:round;stroke-linejoin:round;stroke-opacity:1"
     d="m 125.20075,103.63322 -0.0166,0.0834 -0.0472,0.0707 -0.0707,0.0472 -0.0834,0.0166 h -0.43575 l -0.0834,-0.0166 -0.0707,-0.0472 -0.0472,-0.0707 -0.0166,-0.0834 v -0.51044 l 0.0166,-0.0834 0.0472,-0.0707 0.0707,-0.0472 0.0834,-0.0166 h 0.43575 l 0.0834,0.0166 0.0707,0.0472 0.0472,0.0707 0.0166,0.0834 z"
     id="path88" />
  <path
     style="fill:#000000;fill-opacity:1;fill-rule:evenodd;stroke:none;stroke-linecap:round;stroke-linejoin:round;stroke-opacity:1"
     d="m 123.62575,103.63322 -0.0166,0.0834 -0.0472,0.0707 -0.0707,0.0472 -0.0834,0.0166 h -0.43574 l -0.0834,-0.0166 -0.0707,-0.0472 -0.0472,-0.0707 -0.0166,-0.0834 v -0.51044 l 0.0166,-0.0834 0.0472,-0.0707 0.0707,-0.0472 0.0834,-0.0166 h 0.43575 l 0.0834,0.0166 0.0707,0.0472 0.0472,0.0707 0.0166,0.0834 z"
     id="path89" />
  <path
     style="fill:#000000;fill-opacity:1;fill-rule:evenodd;stroke:none;stroke-linecap:round;stroke-linejoin:round;stroke-opacity:1"
     d="m 135.27625,98.220575 0.0166,-0.08338 0.0472,-0.07068 0.0707,-0.04723 0.0834,-0.01658 0.43574,-1e-6 0.0834,0.01658 0.0707,0.04723 0.0472,0.07068 0.0166,0.08338 v 0.510449 l -0.0166,0.08338 -0.0472,0.07068 -0.0707,0.04723 -0.0834,0.01658 -0.43575,10e-7 -0.0834,-0.01658 -0.0707,-0.04723 -0.0472,-0.07068 -0.0166,-0.08338 z"
     id="path90" />
  <path
     style="fill:#000000;fill-opacity:1;fill-rule:evenodd;stroke:none;stroke-linecap:round;stroke-linejoin:round;stroke-opacity:1"
     d="m 136.85125,98.220575 0.0166,-0.08338 0.0472,-0.07068 0.0707,-0.04723 0.0834,-0.01658 0.43574,-1e-6 0.0834,0.01658 0.0707,0.04723 0.0472,0.07068 0.0166,0.08338 v 0.510449 l -0.0166,0.08338 -0.0472,0.07068 -0.0707,0.04723 -0.0834,0.01658 -0.43574,10e-7 -0.0834,-0.01658 -0.0707,-0.04723 -0.0472,-0.07068 -0.0166,-0.08338 z"
     id="path91" />
  <path
     style="fill:#000000;fill-opacity:1;fill-rule:evenodd;stroke:none;stroke-linecap:round;stroke-linejoin:round;stroke-opacity:1"
     d="m 104.2296,105.7302 h -1.1952 v -0.8964 h 1.1952 z"
     id="path92" />
  <path
     style="fill:#000000;fill-opacity:1;fill-rule:evenodd;stroke:none;stroke-linecap:round;stroke-linejoin:round;stroke-opacity:1"
     d="m 104.2296,102.4302 h -1.1952 v -0.8964 h 1.1952 z"
     id="path93" />
  <path
     style="fill:#000000;fill-opacity:1;fill-rule:evenodd;stroke:none;stroke-linecap:round;stroke-linejoin:round;stroke-opacity:1"
     d="m 135.28162,62.96265 0.0834,0.01659 0.0707,0.04723 0.0472,0.07068 0.0166,0.08338 v 0.435749 l -0.0166,0.08338 -0.0472,0.07068 -0.0707,0.04723 -0.0834,0.01658 -0.51045,1e-6 -0.0834,-0.01658 -0.0707,-0.04723 -0.0472,-0.07068 -0.0166,-0.08338 v -0.435749 l 0.0166,-0.08338 0.0472,-0.07068 0.0707,-0.04723 0.0834,-0.01658 z"
     id="path94" />
  <path
     style="fill:#000000;fill-opacity:1;fill-rule:evenodd;stroke:none;stroke-linecap:round;stroke-linejoin:round;stroke-opacity:1"
     d="m 135.28162,64.53765 0.0834,0.01659 0.0707,0.04723 0.0472,0.07068 0.0166,0.08338 v 0.435749 l -0.0166,0.08338 -0.0472,0.07068 -0.0707,0.04723 -0.0834,0.01658 -0.51045,10e-7 -0.0834,-0.01658 -0.0707,-0.04723 -0.0472,-0.07068 -0.0166,-0.08338 v -0.435749 l 0.0166,-0.08338 0.0472,-0.07068 0.0707,-0.04723 0.0834,-0.01658 z"
     id="path95" />
  <path
     style="fill:#000000;fill-opacity:1;fill-rule:evenodd;stroke:none;stroke-linecap:round;stroke-linejoin:round;stroke-opacity:1"
     d="m 132.9516,62.7978 h 0.7968 v 0.8964 h -0.7968 z"
     id="path96" />
  <path
     style="fill:#000000;fill-opacity:1;fill-rule:evenodd;stroke:none;stroke-linecap:round;stroke-linejoin:round;stroke-opacity:1"
     d="m 131.0516,62.7978 h 0.7968 v 0.8964 h -0.7968 z"
     id="path97" />
  <path
     style="fill:#000000;fill-opacity:1;fill-rule:evenodd;stroke:none;stroke-linecap:round;stroke-linejoin:round;stroke-opacity:1"
     d="m 132.0016,64.7978 h 0.7968 v 0.8964 h -0.7968 z"
     id="path98" />
  <path
     style="fill:#000000;fill-opacity:1;fill-rule:evenodd;stroke:none;stroke-linecap:round;stroke-linejoin:round;stroke-opacity:1"
     d="m 138.17477,65.40915 -0.0834,-0.01658 -0.0707,-0.04723 -0.0472,-0.07068 -0.0166,-0.08338 v -0.435749 l 0.0166,-0.08338 0.0472,-0.07068 0.0707,-0.04723 0.0834,-0.01658 0.51044,-10e-7 0.0834,0.01659 0.0707,0.04723 0.0472,0.07068 0.0166,0.08338 v 0.435749 l -0.0166,0.08338 -0.0472,0.07068 -0.0707,0.04723 -0.0834,0.01658 z"
     id="path99" />
  <path
     style="fill:#000000;fill-opacity:1;fill-rule:evenodd;stroke:none;stroke-linecap:round;stroke-linejoin:round;stroke-opacity:1"
     d="m 138.17477,63.83415 -0.0834,-0.01658 -0.0707,-0.04723 -0.0472,-0.07068 -0.0166,-0.08338 v -0.435749 l 0.0166,-0.08338 0.0472,-0.07068 0.0707,-0.04723 0.0834,-0.01658 0.51044,-10e-7 0.0834,0.01659 0.0707,0.04723 0.0472,0.07068 0.0166,0.08338 v 0.435749 l -0.0166,0.08338 -0.0472,0.07068 -0.0707,0.04723 -0.0834,0.01658 z"
     id="path100" />
  <path
     style="fill:#000000;fill-opacity:1;fill-rule:evenodd;stroke:none;stroke-linecap:round;stroke-linejoin:round;stroke-opacity:1"
     d="m 136.04645,100.38203 -0.0166,0.0834 -0.0472,0.0707 -0.0707,0.0472 -0.0834,0.0166 h -0.43575 l -0.0834,-0.0166 -0.0707,-0.0472 -0.0472,-0.0707 -0.0166,-0.0834 v -0.510445 l 0.0166,-0.08338 0.0472,-0.07068 0.0707,-0.04723 0.0834,-0.01658 0.43574,-1e-6 0.0834,0.01659 0.0707,0.04723 0.0472,0.07068 0.0166,0.08338 z"
     id="path101" />
  <path
     style="fill:#000000;fill-opacity:1;fill-rule:evenodd;stroke:none;stroke-linecap:round;stroke-linejoin:round;stroke-opacity:1"
     d="m 134.47145,100.38203 -0.0166,0.0834 -0.0472,0.0707 -0.0707,0.0472 -0.0834,0.0166 h -0.43575 l -0.0834,-0.0166 -0.0707,-0.0472 -0.0472,-0.0707 -0.0166,-0.0834 v -0.510445 l 0.0166,-0.08338 0.0472,-0.07068 0.0707,-0.04723 0.0834,-0.01658 0.43574,-1e-6 0.0834,0.01659 0.0707,0.04723 0.0472,0.07068 0.0166,0.08338 z"
     id="path102" />
  <path
     style="fill:#000000;fill-opacity:1;fill-rule:evenodd;stroke:none;stroke-linecap:round;stroke-linejoin:round;stroke-opacity:1"
     d="m 119.65525,103.12278 0.0166,-0.0834 0.0472,-0.0707 0.0707,-0.0472 0.0834,-0.0166 h 0.43575 l 0.0834,0.0166 0.0707,0.0472 0.0472,0.0707 0.0166,0.0834 v 0.51044 l -0.0166,0.0834 -0.0472,0.0707 -0.0707,0.0472 -0.0834,0.0166 h -0.43574 l -0.0834,-0.0166 -0.0707,-0.0472 -0.0472,-0.0707 -0.0166,-0.0834 z"
     id="path103" />
  <path
     style="fill:#000000;fill-opacity:1;fill-rule:evenodd;stroke:none;stroke-linecap:round;stroke-linejoin:round;stroke-opacity:1"
     d="m 121.23025,103.12278 0.0166,-0.0834 0.0472,-0.0707 0.0707,-0.0472 0.0834,-0.0166 h 0.43575 l 0.0834,0.0166 0.0707,0.0472 0.0472,0.0707 0.0166,0.0834 v 0.51044 l -0.0166,0.0834 -0.0472,0.0707 -0.0707,0.0472 -0.0834,0.0166 h -0.43574 l -0.0834,-0.0166 -0.0707,-0.0472 -0.0472,-0.0707 -0.0166,-0.0834 z"
     id="path104" />
  <path
     style="fill:#000000;fill-opacity:1;fill-rule:evenodd;stroke:none;stroke-linecap:round;stroke-linejoin:round;stroke-opacity:1"
     d="m 103.546,98.61 v -0.7968 h 0.8964 V 98.61 Z"
     id="path105" />
  <path
     style="fill:#000000;fill-opacity:1;fill-rule:evenodd;stroke:none;stroke-linecap:round;stroke-linejoin:round;stroke-opacity:1"
     d="m 103.546,100.51 v -0.7968 h 0.8964 v 0.7968 z"
     id="path106" />
  <path
     style="fill:#000000;fill-opacity:1;fill-rule:evenodd;stroke:none;stroke-linecap:round;stroke-linejoin:round;stroke-opacity:1"
     d="m 105.546,99.56 v -0.7968 h 0.8964 V 99.56 Z"
     id="path107" />
  <path
     style="fill:#000000;fill-opacity:1;fill-rule:evenodd;stroke:none;stroke-linecap:round;stroke-linejoin:round;stroke-opacity:1"
     d="m 141.1394,106.3702 -0.0171,0.0858 -0.0486,0.0727 -0.0727,0.0486 -0.0858,0.0171 h -0.4482 l -0.0858,-0.0171 -0.0727,-0.0486 -0.0486,-0.0727 -0.0171,-0.0858 v -0.498 l 0.0171,-0.0858 0.0486,-0.0727 0.0727,-0.0486 0.0858,-0.0171 h 0.4482 l 0.0858,0.0171 0.0727,0.0486 0.0486,0.0727 0.0171,0.0858 z"
     id="path108" />
  <path
     style="fill:#000000;fill-opacity:1;fill-rule:evenodd;stroke:none;stroke-linecap:round;stroke-linejoin:round;stroke-opacity:1"
     d="m 139.5894,106.3702 -0.0171,0.0858 -0.0486,0.0727 -0.0727,0.0486 -0.0858,0.0171 h -0.4482 l -0.0858,-0.0171 -0.0727,-0.0486 -0.0486,-0.0727 -0.0171,-0.0858 v -0.498 l 0.0171,-0.0858 0.0486,-0.0727 0.0727,-0.0486 0.0858,-0.0171 h 0.4482 l 0.0858,0.0171 0.0727,0.0486 0.0486,0.0727 0.0171,0.0858 z"
     id="path109" />
  <path
     style="fill:#000000;fill-opacity:1;fill-rule:evenodd;stroke:none;stroke-linecap:round;stroke-linejoin:round;stroke-opacity:1"
     d="m 108.453,95.5378 0.0858,0.01706 0.0727,0.04858 0.0486,0.0727 0.0171,0.08576 v 0.4482 l -0.0171,0.08576 -0.0486,0.0727 -0.0727,0.04858 -0.0858,0.01706 h -0.498 l -0.0858,-0.01706 -0.0727,-0.04858 -0.0486,-0.0727 -0.0171,-0.08576 v -0.4482 l 0.0171,-0.08576 0.0486,-0.0727 0.0727,-0.04858 0.0858,-0.01706 z"
     id="path110" />
  <path
     style="fill:#000000;fill-opacity:1;fill-rule:evenodd;stroke:none;stroke-linecap:round;stroke-linejoin:round;stroke-opacity:1"
     d="m 108.453,97.0878 0.0858,0.01706 0.0727,0.04858 0.0486,0.0727 0.0171,0.08576 v 0.4482 l -0.0171,0.08576 -0.0486,0.0727 -0.0727,0.04858 -0.0858,0.01706 h -0.498 l -0.0858,-0.01706 -0.0727,-0.04858 -0.0486,-0.0727 -0.0171,-0.08576 v -0.4482 l 0.0171,-0.08576 0.0486,-0.0727 0.0727,-0.04858 0.0858,-0.01706 z"
     id="path111" />
  <path
     style="fill:#000000;fill-opacity:1;fill-rule:evenodd;stroke:none;stroke-linecap:round;stroke-linejoin:round;stroke-opacity:1"
     d="m 155.8278,109.5398 v 1.494 h -1.494 v -1.494 z"
     id="path112" />
  <path
     style="fill:#000000;fill-opacity:1;fill-rule:evenodd;stroke:none;stroke-linecap:round;stroke-linejoin:round;stroke-opacity:1"
     d="m 148.0278,109.5398 v 1.494 h -1.494 v -1.494 z"
     id="path113" />
  <path
     style="fill:#000000;fill-opacity:1;fill-rule:evenodd;stroke:none;stroke-linecap:round;stroke-linejoin:round;stroke-opacity:1"
     d="m 153.285,98.176 0.0171,-0.08576 0.0486,-0.0727 0.0727,-0.04858 0.0858,-0.01706 h 0.4482 l 0.0858,0.01706 0.0727,0.04858 0.0486,0.0727 0.0171,0.08576 v 0.498 l -0.0171,0.08576 -0.0486,0.0727 -0.0727,0.04858 -0.0858,0.01706 h -0.4482 l -0.0858,-0.01706 -0.0727,-0.04858 -0.0486,-0.0727 -0.0171,-0.08576 z"
     id="path114" />
  <path
     style="fill:#000000;fill-opacity:1;fill-rule:evenodd;stroke:none;stroke-linecap:round;stroke-linejoin:round;stroke-opacity:1"
     d="m 154.835,98.176 0.0171,-0.08576 0.0486,-0.0727 0.0727,-0.04858 0.0858,-0.01706 h 0.4482 l 0.0858,0.01706 0.0727,0.04858 0.0486,0.0727 0.0171,0.08576 v 0.498 l -0.0171,0.08576 -0.0486,0.0727 -0.0727,0.04858 -0.0858,0.01706 h -0.4482 l -0.0858,-0.01706 -0.0727,-0.04858 -0.0486,-0.0727 -0.0171,-0.08576 z"
     id="path115" />
  <path
     style="fill:#000000;fill-opacity:1;fill-rule:evenodd;stroke:none;stroke-linecap:round;stroke-linejoin:round;stroke-opacity:1"
     d="m 120.16325,64.514775 0.0166,-0.08338 0.0472,-0.07068 0.0707,-0.04723 0.0834,-0.01658 0.43574,-10e-7 0.0834,0.01659 0.0707,0.04723 0.0472,0.07068 0.0166,0.08338 v 0.510449 l -0.0166,0.08338 -0.0472,0.07068 -0.0707,0.04723 -0.0834,0.01658 -0.43575,10e-7 -0.0834,-0.01658 -0.0707,-0.04723 -0.0472,-0.07068 -0.0166,-0.08338 z"
     id="path130" />
  <path
     style="fill:#000000;fill-opacity:1;fill-rule:evenodd;stroke:none;stroke-linecap:round;stroke-linejoin:round;stroke-opacity:1"
     d="m 121.73825,64.514775 0.0166,-0.08338 0.0472,-0.07068 0.0707,-0.04723 0.0834,-0.01658 0.43575,-10e-7 0.0834,0.01659 0.0707,0.04723 0.0472,0.07068 0.0166,0.08338 v 0.510449 l -0.0166,0.08338 -0.0472,0.07068 -0.0707,0.04723 -0.0834,0.01658 -0.43574,10e-7 -0.0834,-0.01658 -0.0707,-0.04723 -0.0472,-0.07068 -0.0166,-0.08338 z"
     id="path131" />
  <path
     style="fill:#000000;fill-opacity:1;fill-rule:evenodd;stroke:none;stroke-linecap:round;stroke-linejoin:round;stroke-opacity:1"
     d="m 102.151,81.8232 -0.0858,-0.01706 -0.0727,-0.04858 -0.0486,-0.0727 -0.0171,-0.08576 v -0.4482 l 0.0171,-0.08576 0.0486,-0.0727 0.0727,-0.04858 0.0858,-0.01706 h 0.498 l 0.0858,0.01706 0.0727,0.04858 0.0486,0.0727 0.0171,0.08576 v 0.4482 l -0.0171,0.08576 -0.0486,0.0727 -0.0727,0.04858 -0.0858,0.01706 z"
     id="path132" />
  <path
     style="fill:#000000;fill-opacity:1;fill-rule:evenodd;stroke:none;stroke-linecap:round;stroke-linejoin:round;stroke-opacity:1"
     d="m 102.151,80.2732 -0.0858,-0.01706 -0.0727,-0.04858 -0.0486,-0.0727 -0.0171,-0.08576 v -0.4482 l 0.0171,-0.08576 0.0486,-0.0727 0.0727,-0.04858 0.0858,-0.01706 h 0.498 l 0.0858,0.01706 0.0727,0.04858 0.0486,0.0727 0.0171,0.08576 v 0.4482 l -0.0171,0.08576 -0.0486,0.0727 -0.0727,0.04858 -0.0858,0.01706 z"
     id="path133" />
  <path
     style="fill:#000000;fill-opacity:1;fill-rule:evenodd;stroke:none;stroke-linecap:round;stroke-linejoin:round;stroke-opacity:1"
     d="m 109.54625,103.12278 0.0166,-0.0834 0.0472,-0.0707 0.0707,-0.0472 0.0834,-0.0166 h 0.43575 l 0.0834,0.0166 0.0707,0.0472 0.0472,0.0707 0.0166,0.0834 v 0.51044 l -0.0166,0.0834 -0.0472,0.0707 -0.0707,0.0472 -0.0834,0.0166 h -0.43574 l -0.0834,-0.0166 -0.0707,-0.0472 -0.0472,-0.0707 -0.0166,-0.0834 z"
     id="path134" />
  <path
     style="fill:#000000;fill-opacity:1;fill-rule:evenodd;stroke:none;stroke-linecap:round;stroke-linejoin:round;stroke-opacity:1"
     d="m 111.12125,103.12278 0.0166,-0.0834 0.0472,-0.0707 0.0707,-0.0472 0.0834,-0.0166 h 0.43574 l 0.0834,0.0166 0.0707,0.0472 0.0472,0.0707 0.0166,0.0834 v 0.51044 l -0.0166,0.0834 -0.0472,0.0707 -0.0707,0.0472 -0.0834,0.0166 h -0.43575 l -0.0834,-0.0166 -0.0707,-0.0472 -0.0472,-0.0707 -0.0166,-0.0834 z"
     id="path135" />
  <path
     style="fill:#000000;fill-opacity:1;fill-rule:evenodd;stroke:none;stroke-linecap:round;stroke-linejoin:round;stroke-opacity:1"
     d="m 104.90077,108.94475 -0.0834,-0.0166 -0.0707,-0.0472 -0.0472,-0.0707 -0.0166,-0.0834 v -0.43575 l 0.0166,-0.0834 0.0472,-0.0707 0.0707,-0.0472 0.0834,-0.0166 h 0.51045 l 0.0834,0.0166 0.0707,0.0472 0.0472,0.0707 0.0166,0.0834 v 0.43575 l -0.0166,0.0834 -0.0472,0.0707 -0.0707,0.0472 -0.0834,0.0166 z"
     id="path136" />
  <path
     style="fill:#000000;fill-opacity:1;fill-rule:evenodd;stroke:none;stroke-linecap:round;stroke-linejoin:round;stroke-opacity:1"
     d="m 104.90077,107.36975 -0.0834,-0.0166 -0.0707,-0.0472 -0.0472,-0.0707 -0.0166,-0.0834 v -0.43574 l 0.0166,-0.0834 0.0472,-0.0707 0.0707,-0.0472 0.0834,-0.0166 h 0.51045 l 0.0834,0.0166 0.0707,0.0472 0.0472,0.0707 0.0166,0.0834 v 0.43575 l -0.0166,0.0834 -0.0472,0.0707 -0.0707,0.0472 -0.0834,0.0166 z"
     id="path137" />
  <metadata
     id="metadata137">
    <rdf:RDF>
      <cc:Work
         rdf:about="">
        <dc:title>SVG Image created as bigbro_box-F_Paste.svg date 2025/02/27 19:28:33 </dc:title>
      </cc:Work>
    </rdf:RDF>
  </metadata>
  <path
     style="fill:#000000;fill-opacity:1;fill-rule:evenodd;stroke:none;stroke-width:3.07767;stroke-linecap:round;stroke-linejoin:round;stroke-opacity:1"
     d="m 124.77229,88.464536 h 17.34559 v 0.731319 h -17.34559 z"
     id="path138" />
  <rect
     style="fill:none;stroke:#ff0000;stroke-width:0.347427;stroke-dasharray:none"
     id="rect138"
     width="8.1999998"
     height="0.85000002"
     x="109.43597"
     y="100.586"
     rx="0.5"
     ry="0.5" />
  <rect
     style="fill:none;stroke:#ff0000;stroke-width:0.347427;stroke-dasharray:none"
     id="rect139"
     width="8.1999998"
     height="0.85000002"
     x="109.43596"
     y="95.652954"
     rx="0.5"
     ry="0.5" />
  <rect
     style="fill:none;stroke:#ff0000;stroke-width:0.347427;stroke-dasharray:none"
     id="rect140"
     width="8.1999998"
     height="0.85000002"
     x="109.43597"
     y="105.22202"
     rx="0.5"
     ry="0.5" />
  <rect
     style="fill:none;stroke:#ff0000;stroke-width:0.347427;stroke-dasharray:none"
     id="rect141"
     width="8.1999998"
     height="0.85000002"
     x="109.42624"
     y="110.17911"
     rx="0.5"
     ry="0.5" />
</svg>
