<?xml version="1.0" encoding="UTF-8" standalone="no"?>
<svg
   version="1.1"
   width="297.002200mm"
   height="210.007200mm"
   viewBox="0.000000 0.000000 297.002200 210.007200"
   id="svg146"
   sodipodi:docname="bigbro_box-F_Paste.svg"
   inkscape:version="1.4 (e7c3feb100, 2024-10-09)"
   xmlns:inkscape="http://www.inkscape.org/namespaces/inkscape"
   xmlns:sodipodi="http://sodipodi.sourceforge.net/DTD/sodipodi-0.dtd"
   xmlns="http://www.w3.org/2000/svg"
   xmlns:svg="http://www.w3.org/2000/svg">
  <defs
     id="defs146" />
  <sodipodi:namedview
     id="namedview146"
     pagecolor="#ffffff"
     bordercolor="#000000"
     borderopacity="0.25"
     inkscape:showpageshadow="2"
     inkscape:pageopacity="0.0"
     inkscape:pagecheckerboard="0"
     inkscape:deskcolor="#d1d1d1"
     inkscape:document-units="mm"
     inkscape:zoom="28.248251"
     inkscape:cx="429.14162"
     inkscape:cy="411.0166"
     inkscape:window-width="2560"
     inkscape:window-height="1382"
     inkscape:window-x="0"
     inkscape:window-y="480"
     inkscape:window-maximized="1"
     inkscape:current-layer="svg146" />
  <title
     id="title1">SVG Image created as bigbro_box-F_Paste.svg date 2025/03/15 09:45:05 </title>
  <desc
     id="desc1">Image generated by PCBNEW </desc>
  <path
     style="fill:#000000;fill-opacity:1;fill-rule:evenodd;stroke:none;stroke-linecap:round;stroke-linejoin:round;stroke-opacity:1"
     d="m 105.64275,110.99922 -0.0166,0.0834 -0.0472,0.0707 -0.0707,0.0472 -0.0834,0.0166 h -0.43574 l -0.0834,-0.0166 -0.0707,-0.0472 -0.0472,-0.0707 -0.0166,-0.0834 v -0.51044 l 0.0166,-0.0834 0.0472,-0.0707 0.0707,-0.0472 0.0834,-0.0166 h 0.43575 l 0.0834,0.0166 0.0707,0.0472 0.0472,0.0707 0.0166,0.0834 z"
     id="path1" />
  <path
     style="fill:#000000;fill-opacity:1;fill-rule:evenodd;stroke:none;stroke-linecap:round;stroke-linejoin:round;stroke-opacity:1"
     d="m 104.06775,110.99922 -0.0166,0.0834 -0.0472,0.0707 -0.0707,0.0472 -0.0834,0.0166 h -0.43574 l -0.0834,-0.0166 -0.0707,-0.0472 -0.0472,-0.0707 -0.0166,-0.0834 v -0.51044 l 0.0166,-0.0834 0.0472,-0.0707 0.0707,-0.0472 0.0834,-0.0166 h 0.43574 l 0.0834,0.0166 0.0707,0.0472 0.0472,0.0707 0.0166,0.0834 z"
     id="path2" />
  <path
     style="fill:#000000;fill-opacity:1;fill-rule:evenodd;stroke:none;stroke-linecap:round;stroke-linejoin:round;stroke-opacity:1"
     d="m 129.0382,66.335 0.0762,0.01516 0.0646,0.04318 0.0432,0.06463 0.0152,0.07623 v 0.498 l -0.0152,0.07623 -0.0432,0.06463 -0.0646,0.04318 -0.0762,0.01516 h -0.3984 l -0.0762,-0.01516 -0.0646,-0.04318 -0.0432,-0.06463 -0.0152,-0.07623 v -0.498 l 0.0152,-0.07623 0.0432,-0.06463 0.0646,-0.04318 0.0762,-0.01516 z"
     id="path3" />
  <path
     style="fill:#000000;fill-opacity:1;fill-rule:evenodd;stroke:none;stroke-linecap:round;stroke-linejoin:round;stroke-opacity:1"
     d="m 127.1382,66.335 0.0762,0.01516 0.0646,0.04318 0.0432,0.06463 0.0152,0.07623 v 0.498 l -0.0152,0.07623 -0.0432,0.06463 -0.0646,0.04318 -0.0762,0.01516 h -0.3984 l -0.0762,-0.01516 -0.0646,-0.04318 -0.0432,-0.06463 -0.0152,-0.07623 v -0.498 l 0.0152,-0.07623 0.0432,-0.06463 0.0646,-0.04318 0.0762,-0.01516 z"
     id="path4" />
  <path
     style="fill:#000000;fill-opacity:1;fill-rule:evenodd;stroke:none;stroke-linecap:round;stroke-linejoin:round;stroke-opacity:1"
     d="m 128.0882,68.335 0.0762,0.01516 0.0646,0.04318 0.0432,0.06463 0.0152,0.07623 v 0.498 l -0.0152,0.07623 -0.0432,0.06463 -0.0646,0.04318 -0.0762,0.01516 h -0.3984 l -0.0762,-0.01516 -0.0646,-0.04318 -0.0432,-0.06463 -0.0152,-0.07623 v -0.498 l 0.0152,-0.07623 0.0432,-0.06463 0.0646,-0.04318 0.0762,-0.01516 z"
     id="path5" />
  <path
     style="fill:#000000;fill-opacity:1;fill-rule:evenodd;stroke:none;stroke-linecap:round;stroke-linejoin:round;stroke-opacity:1"
     d="m 103.904,79.002 0.019,-0.09529 0.054,-0.08078 0.0808,-0.05398 0.0953,-0.01895 h 1.494 l 0.0953,0.01895 0.0808,0.05398 0.054,0.08078 0.019,0.09529 v 0.996 l -0.019,0.09529 -0.054,0.08078 -0.0808,0.05398 -0.0953,0.01895 h -1.494 l -0.0953,-0.01895 -0.0808,-0.05398 -0.054,-0.08078 -0.019,-0.09529 z"
     id="path6" />
  <path
     style="fill:#000000;fill-opacity:1;fill-rule:evenodd;stroke:none;stroke-linecap:round;stroke-linejoin:round;stroke-opacity:1"
     d="m 103.904,81.302 0.019,-0.09529 0.054,-0.08078 0.0808,-0.05398 0.0953,-0.01895 h 1.494 l 0.0953,0.01895 0.0808,0.05398 0.054,0.08078 0.019,0.09529 v 0.996 l -0.019,0.09529 -0.054,0.08078 -0.0808,0.05398 -0.0953,0.01895 h -1.494 l -0.0953,-0.01895 -0.0808,-0.05398 -0.054,-0.08078 -0.019,-0.09529 z"
     id="path7" />
  <path
     style="fill:#000000;fill-opacity:1;fill-rule:evenodd;stroke:none;stroke-linecap:round;stroke-linejoin:round;stroke-opacity:1"
     d="m 110.204,80.1566 0.019,-0.09529 0.054,-0.08078 0.0808,-0.05398 0.0953,-0.01895 h 1.494 l 0.0953,0.01895 0.0808,0.05398 0.054,0.08078 0.019,0.09529 v 3.2868 l -0.019,0.09529 -0.054,0.08078 -0.0808,0.05398 -0.0953,0.01895 h -1.494 l -0.0953,-0.01895 -0.0808,-0.05398 -0.054,-0.08078 -0.019,-0.09529 z"
     id="path8" />
  <path
     style="fill:#000000;fill-opacity:1;fill-rule:evenodd;stroke:none;stroke-linecap:round;stroke-linejoin:round;stroke-opacity:1"
     d="m 103.904,83.602 0.019,-0.09529 0.054,-0.08078 0.0808,-0.05398 0.0953,-0.01895 h 1.494 l 0.0953,0.01895 0.0808,0.05398 0.054,0.08078 0.019,0.09529 v 0.996 l -0.019,0.09529 -0.054,0.08078 -0.0808,0.05398 -0.0953,0.01895 h -1.494 l -0.0953,-0.01895 -0.0808,-0.05398 -0.054,-0.08078 -0.019,-0.09529 z"
     id="path9" />
  <path
     style="fill:#000000;fill-opacity:1;fill-rule:evenodd;stroke:none;stroke-linecap:round;stroke-linejoin:round;stroke-opacity:1"
     d="m 140.4819,59.2418 0.0762,0.01516 0.0646,0.04318 0.0432,0.06462 0.0152,0.07623 v 0.3984 l -0.0152,0.07623 -0.0432,0.06462 -0.0646,0.04318 -0.0762,0.01516 h -0.5478 l -0.0762,-0.01516 -0.0646,-0.04318 -0.0432,-0.06462 -0.0152,-0.07623 V 59.441 l 0.0152,-0.07623 0.0432,-0.06462 0.0646,-0.04318 0.0762,-0.01516 z"
     id="path10" />
  <path
     style="fill:#000000;fill-opacity:1;fill-rule:evenodd;stroke:none;stroke-linecap:round;stroke-linejoin:round;stroke-opacity:1"
     d="m 140.4819,60.8918 0.0762,0.01516 0.0646,0.04318 0.0432,0.06462 0.0152,0.07623 v 0.3984 l -0.0152,0.07623 -0.0432,0.06462 -0.0646,0.04318 -0.0762,0.01516 h -0.5478 l -0.0762,-0.01516 -0.0646,-0.04318 -0.0432,-0.06462 -0.0152,-0.07623 V 61.091 l 0.0152,-0.07623 0.0432,-0.06462 0.0646,-0.04318 0.0762,-0.01516 z"
     id="path11" />
  <path
     style="fill:#000000;fill-opacity:1;fill-rule:evenodd;stroke:none;stroke-linecap:round;stroke-linejoin:round;stroke-opacity:1"
     d="m 116.9121,62.7181 0.0152,-0.07623 0.0432,-0.06462 0.0646,-0.04318 0.0762,-0.01516 h 0.3984 l 0.0762,0.01516 0.0646,0.04318 0.0432,0.06462 0.0152,0.07623 v 0.5478 l -0.0152,0.07623 -0.0432,0.06462 -0.0646,0.04318 -0.0762,0.01516 h -0.3984 l -0.0762,-0.01516 -0.0646,-0.04318 -0.0432,-0.06462 -0.0152,-0.07623 z"
     id="path12" />
  <path
     style="fill:#000000;fill-opacity:1;fill-rule:evenodd;stroke:none;stroke-linecap:round;stroke-linejoin:round;stroke-opacity:1"
     d="m 118.5621,62.7181 0.0152,-0.07623 0.0432,-0.06462 0.0646,-0.04318 0.0762,-0.01516 h 0.3984 l 0.0762,0.01516 0.0646,0.04318 0.0432,0.06462 0.0152,0.07623 v 0.5478 l -0.0152,0.07623 -0.0432,0.06462 -0.0646,0.04318 -0.0762,0.01516 h -0.3984 l -0.0762,-0.01516 -0.0646,-0.04318 -0.0432,-0.06462 -0.0152,-0.07623 z"
     id="path13" />
  <path
     style="fill:#000000;fill-opacity:1;fill-rule:evenodd;stroke:none;stroke-linecap:round;stroke-linejoin:round;stroke-opacity:1"
     d="m 108.0466,106.4474 0.0858,0.0171 0.0727,0.0486 0.0486,0.0727 0.0171,0.0858 v 0.4482 l -0.0171,0.0858 -0.0486,0.0727 -0.0727,0.0486 -0.0858,0.0171 h -0.498 l -0.0858,-0.0171 -0.0727,-0.0486 -0.0486,-0.0727 -0.0171,-0.0858 v -0.4482 l 0.0171,-0.0858 0.0486,-0.0727 0.0727,-0.0486 0.0858,-0.0171 z"
     id="path14" />
  <path
     style="fill:#000000;fill-opacity:1;fill-rule:evenodd;stroke:none;stroke-linecap:round;stroke-linejoin:round;stroke-opacity:1"
     d="m 108.0466,107.9974 0.0858,0.0171 0.0727,0.0486 0.0486,0.0727 0.0171,0.0858 v 0.4482 l -0.0171,0.0858 -0.0486,0.0727 -0.0727,0.0486 -0.0858,0.0171 h -0.498 l -0.0858,-0.0171 -0.0727,-0.0486 -0.0486,-0.0727 -0.0171,-0.0858 v -0.4482 l 0.0171,-0.0858 0.0486,-0.0727 0.0727,-0.0486 0.0858,-0.0171 z"
     id="path15" />
  <path
     style="fill:#000000;fill-opacity:1;fill-rule:evenodd;stroke:none;stroke-linecap:round;stroke-linejoin:round;stroke-opacity:1"
     d="m 133.0158,66.3284 0.0762,0.01516 0.0646,0.04318 0.0432,0.06463 0.0152,0.07623 v 0.498 l -0.0152,0.07623 -0.0432,0.06462 -0.0646,0.04318 -0.0762,0.01516 h -0.3984 l -0.0762,-0.01516 -0.0646,-0.04318 -0.0432,-0.06462 -0.0152,-0.07623 v -0.498 l 0.0152,-0.07623 0.0432,-0.06463 0.0646,-0.04318 0.0762,-0.01516 z"
     id="path16" />
  <path
     style="fill:#000000;fill-opacity:1;fill-rule:evenodd;stroke:none;stroke-linecap:round;stroke-linejoin:round;stroke-opacity:1"
     d="m 131.1158,66.3284 0.0762,0.01516 0.0646,0.04318 0.0432,0.06463 0.0152,0.07623 v 0.498 l -0.0152,0.07623 -0.0432,0.06462 -0.0646,0.04318 -0.0762,0.01516 h -0.3984 l -0.0762,-0.01516 -0.0646,-0.04318 -0.0432,-0.06462 -0.0152,-0.07623 v -0.498 l 0.0152,-0.07623 0.0432,-0.06463 0.0646,-0.04318 0.0762,-0.01516 z"
     id="path17" />
  <path
     style="fill:#000000;fill-opacity:1;fill-rule:evenodd;stroke:none;stroke-linecap:round;stroke-linejoin:round;stroke-opacity:1"
     d="m 132.0658,68.3284 0.0762,0.01516 0.0646,0.04318 0.0432,0.06463 0.0152,0.07623 v 0.498 l -0.0152,0.07623 -0.0432,0.06462 -0.0646,0.04318 -0.0762,0.01516 h -0.3984 l -0.0762,-0.01516 -0.0646,-0.04318 -0.0432,-0.06462 -0.0152,-0.07623 v -0.498 l 0.0152,-0.07623 0.0432,-0.06463 0.0646,-0.04318 0.0762,-0.01516 z"
     id="path18" />
  <path
     style="fill:#000000;fill-opacity:1;fill-rule:evenodd;stroke:none;stroke-linecap:round;stroke-linejoin:round;stroke-opacity:1"
     d="m 105.8714,96.5399 -0.0152,0.07623 -0.0432,0.06463 -0.0646,0.04318 -0.0762,0.01516 h -0.3984 l -0.0762,-0.01516 -0.0646,-0.04318 -0.0432,-0.06463 -0.0152,-0.07623 v -0.5478 l 0.0152,-0.07623 0.0432,-0.06463 0.0646,-0.04318 0.0762,-0.01516 h 0.3984 l 0.0762,0.01516 0.0646,0.04318 0.0432,0.06463 0.0152,0.07623 z"
     id="path66" />
  <path
     style="fill:#000000;fill-opacity:1;fill-rule:evenodd;stroke:none;stroke-linecap:round;stroke-linejoin:round;stroke-opacity:1"
     d="m 104.2214,96.5399 -0.0152,0.07623 -0.0432,0.06463 -0.0646,0.04318 -0.0762,0.01516 h -0.3984 l -0.0762,-0.01516 -0.0646,-0.04318 -0.0432,-0.06463 -0.0152,-0.07623 v -0.5478 l 0.0152,-0.07623 0.0432,-0.06463 0.0646,-0.04318 0.0762,-0.01516 h 0.3984 l 0.0762,0.01516 0.0646,0.04318 0.0432,0.06463 0.0152,0.07623 z"
     id="path67" />
  <path
     style="fill:#000000;fill-opacity:1;fill-rule:evenodd;stroke:none;stroke-linecap:round;stroke-linejoin:round;stroke-opacity:1"
     d="m 116.591,60.6592 -0.0858,-0.01706 -0.0727,-0.04858 -0.0486,-0.0727 -0.0171,-0.08576 v -0.4482 l 0.0171,-0.08576 0.0486,-0.0727 0.0727,-0.04858 0.0858,-0.01706 h 0.498 l 0.0858,0.01706 0.0727,0.04858 0.0486,0.0727 0.0171,0.08576 v 0.4482 l -0.0171,0.08576 -0.0486,0.0727 -0.0727,0.04858 -0.0858,0.01706 z"
     id="path68" />
  <path
     style="fill:#000000;fill-opacity:1;fill-rule:evenodd;stroke:none;stroke-linecap:round;stroke-linejoin:round;stroke-opacity:1"
     d="m 116.591,59.1092 -0.0858,-0.01706 -0.0727,-0.04858 -0.0486,-0.0727 -0.0171,-0.08576 v -0.4482 l 0.0171,-0.08576 0.0486,-0.0727 0.0727,-0.04858 0.0858,-0.01706 h 0.498 l 0.0858,0.01706 0.0727,0.04858 0.0486,0.0727 0.0171,0.08576 v 0.4482 l -0.0171,0.08576 -0.0486,0.0727 -0.0727,0.04858 -0.0858,0.01706 z"
     id="path69" />
  <path
     style="fill:#000000;fill-opacity:1;fill-rule:evenodd;stroke:none;stroke-linecap:round;stroke-linejoin:round;stroke-opacity:1"
     d="m 119.2592,64.4163 0.0762,0.01516 0.0646,0.04318 0.0432,0.06463 0.0152,0.07623 v 0.498 l -0.0152,0.07623 -0.0432,0.06463 -0.0646,0.04318 -0.0762,0.01516 h -0.3984 l -0.0762,-0.01516 -0.0646,-0.04318 -0.0432,-0.06463 -0.0152,-0.07623 v -0.498 l 0.0152,-0.07623 0.0432,-0.06463 0.0646,-0.04318 0.0762,-0.01516 z"
     id="path70" />
  <path
     style="fill:#000000;fill-opacity:1;fill-rule:evenodd;stroke:none;stroke-linecap:round;stroke-linejoin:round;stroke-opacity:1"
     d="m 117.3592,64.4163 0.0762,0.01516 0.0646,0.04318 0.0432,0.06463 0.0152,0.07623 v 0.498 l -0.0152,0.07623 -0.0432,0.06463 -0.0646,0.04318 -0.0762,0.01516 h -0.3984 l -0.0762,-0.01516 -0.0646,-0.04318 -0.0432,-0.06463 -0.0152,-0.07623 v -0.498 l 0.0152,-0.07623 0.0432,-0.06463 0.0646,-0.04318 0.0762,-0.01516 z"
     id="path71" />
  <path
     style="fill:#000000;fill-opacity:1;fill-rule:evenodd;stroke:none;stroke-linecap:round;stroke-linejoin:round;stroke-opacity:1"
     d="m 118.3092,66.4163 0.0762,0.01516 0.0646,0.04318 0.0432,0.06463 0.0152,0.07623 v 0.498 l -0.0152,0.07623 -0.0432,0.06463 -0.0646,0.04318 -0.0762,0.01516 h -0.3984 l -0.0762,-0.01516 -0.0646,-0.04318 -0.0432,-0.06463 -0.0152,-0.07623 v -0.498 l 0.0152,-0.07623 0.0432,-0.06463 0.0646,-0.04318 0.0762,-0.01516 z"
     id="path72" />
  <path
     style="fill:#000000;fill-opacity:1;fill-rule:evenodd;stroke:none;stroke-linecap:round;stroke-linejoin:round;stroke-opacity:1"
     d="m 135.8774,110.983 v -1.494 h 1.494 v 1.494 z"
     id="path87" />
  <path
     style="fill:#000000;fill-opacity:1;fill-rule:evenodd;stroke:none;stroke-linecap:round;stroke-linejoin:round;stroke-opacity:1"
     d="m 143.6774,110.983 v -1.494 h 1.494 v 1.494 z"
     id="path88" />
  <path
     style="fill:#000000;fill-opacity:1;fill-rule:evenodd;stroke:none;stroke-linecap:round;stroke-linejoin:round;stroke-opacity:1"
     d="m 133.1886,65.1709 -0.0152,0.07623 -0.0432,0.06463 -0.0646,0.04318 -0.0762,0.01516 h -0.3984 l -0.0762,-0.01516 -0.0646,-0.04318 -0.0432,-0.06463 -0.0152,-0.07623 v -0.5478 l 0.0152,-0.07623 0.0432,-0.06463 0.0646,-0.04318 0.0762,-0.01516 h 0.3984 l 0.0762,0.01516 0.0646,0.04318 0.0432,0.06463 0.0152,0.07623 z"
     id="path89" />
  <path
     style="fill:#000000;fill-opacity:1;fill-rule:evenodd;stroke:none;stroke-linecap:round;stroke-linejoin:round;stroke-opacity:1"
     d="m 131.5386,65.1709 -0.0152,0.07623 -0.0432,0.06463 -0.0646,0.04318 -0.0762,0.01516 h -0.3984 l -0.0762,-0.01516 -0.0646,-0.04318 -0.0432,-0.06463 -0.0152,-0.07623 v -0.5478 l 0.0152,-0.07623 0.0432,-0.06463 0.0646,-0.04318 0.0762,-0.01516 h 0.3984 l 0.0762,0.01516 0.0646,0.04318 0.0432,0.06463 0.0152,0.07623 z"
     id="path90" />
  <path
     style="fill:#000000;fill-opacity:1;fill-rule:evenodd;stroke:none;stroke-linecap:round;stroke-linejoin:round;stroke-opacity:1"
     d="m 105.2026,93.7061 0.0152,-0.07623 0.0432,-0.06462 0.0646,-0.04318 0.0762,-0.01516 h 0.3984 l 0.0762,0.01516 0.0646,0.04318 0.0432,0.06462 0.0152,0.07623 v 0.5478 l -0.0152,0.07623 -0.0432,0.06463 -0.0646,0.04318 -0.0762,0.01516 h -0.3984 l -0.0762,-0.01516 -0.0646,-0.04318 -0.0432,-0.06463 -0.0152,-0.07623 z"
     id="path91" />
  <path
     style="fill:#000000;fill-opacity:1;fill-rule:evenodd;stroke:none;stroke-linecap:round;stroke-linejoin:round;stroke-opacity:1"
     d="m 106.8526,93.7061 0.0152,-0.07623 0.0432,-0.06462 0.0646,-0.04318 0.0762,-0.01516 h 0.3984 l 0.0762,0.01516 0.0646,0.04318 0.0432,0.06462 0.0152,0.07623 v 0.5478 l -0.0152,0.07623 -0.0432,0.06463 -0.0646,0.04318 -0.0762,0.01516 h -0.3984 l -0.0762,-0.01516 -0.0646,-0.04318 -0.0432,-0.06463 -0.0152,-0.07623 z"
     id="path92" />
  <path
     style="fill:#000000;fill-opacity:1;fill-rule:evenodd;stroke:none;stroke-linecap:round;stroke-linejoin:round;stroke-opacity:1"
     d="m 125.70865,103.63322 -0.0166,0.0834 -0.0472,0.0707 -0.0707,0.0472 -0.0834,0.0166 h -0.43574 l -0.0834,-0.0166 -0.0707,-0.0472 -0.0472,-0.0707 -0.0166,-0.0834 v -0.51044 l 0.0166,-0.0834 0.0472,-0.0707 0.0707,-0.0472 0.0834,-0.0166 h 0.43575 l 0.0834,0.0166 0.0707,0.0472 0.0472,0.0707 0.0166,0.0834 z"
     id="path93" />
  <path
     style="fill:#000000;fill-opacity:1;fill-rule:evenodd;stroke:none;stroke-linecap:round;stroke-linejoin:round;stroke-opacity:1"
     d="m 124.13365,103.63322 -0.0166,0.0834 -0.0472,0.0707 -0.0707,0.0472 -0.0834,0.0166 H 123.48 l -0.0834,-0.0166 -0.0707,-0.0472 -0.0472,-0.0707 -0.0166,-0.0834 v -0.51044 l 0.0166,-0.0834 0.0472,-0.0707 0.0707,-0.0472 0.0834,-0.0166 h 0.43574 l 0.0834,0.0166 0.0707,0.0472 0.0472,0.0707 0.0166,0.0834 z"
     id="path94" />
  <path
     style="fill:#000000;fill-opacity:1;fill-rule:evenodd;stroke:none;stroke-linecap:round;stroke-linejoin:round;stroke-opacity:1"
     d="m 133.613,97.8971 0.0152,-0.07623 0.0432,-0.06463 0.0646,-0.04318 0.0762,-0.01516 h 0.3984 l 0.0762,0.01516 0.0646,0.04318 0.0432,0.06463 0.0152,0.07623 v 0.5478 l -0.0152,0.07623 -0.0432,0.06463 -0.0646,0.04318 -0.0762,0.01516 h -0.3984 l -0.0762,-0.01516 -0.0646,-0.04318 -0.0432,-0.06463 -0.0152,-0.07623 z"
     id="path95" />
  <path
     style="fill:#000000;fill-opacity:1;fill-rule:evenodd;stroke:none;stroke-linecap:round;stroke-linejoin:round;stroke-opacity:1"
     d="m 135.263,97.8971 0.0152,-0.07623 0.0432,-0.06463 0.0646,-0.04318 0.0762,-0.01516 h 0.3984 l 0.0762,0.01516 0.0646,0.04318 0.0432,0.06463 0.0152,0.07623 v 0.5478 l -0.0152,0.07623 -0.0432,0.06463 -0.0646,0.04318 -0.0762,0.01516 h -0.3984 l -0.0762,-0.01516 -0.0646,-0.04318 -0.0432,-0.06463 -0.0152,-0.07623 z"
     id="path96" />
  <path
     style="fill:#000000;fill-opacity:1;fill-rule:evenodd;stroke:none;stroke-linecap:round;stroke-linejoin:round;stroke-opacity:1"
     d="m 104.2296,105.7302 h -1.1952 v -0.8964 h 1.1952 z"
     id="path97" />
  <path
     style="fill:#000000;fill-opacity:1;fill-rule:evenodd;stroke:none;stroke-linecap:round;stroke-linejoin:round;stroke-opacity:1"
     d="m 104.2296,102.4302 h -1.1952 v -0.8964 h 1.1952 z"
     id="path98" />
  <path
     style="fill:#000000;fill-opacity:1;fill-rule:evenodd;stroke:none;stroke-linecap:round;stroke-linejoin:round;stroke-opacity:1"
     d="m 133.0034,62.8197 0.0152,-0.07623 0.0432,-0.06462 0.0646,-0.04318 0.0762,-0.01516 h 0.3984 l 0.0762,0.01516 0.0646,0.04318 0.0432,0.06462 0.0152,0.07623 v 0.5478 l -0.0152,0.07623 -0.0432,0.06462 -0.0646,0.04318 -0.0762,0.01516 h -0.3984 l -0.0762,-0.01516 -0.0646,-0.04318 -0.0432,-0.06462 -0.0152,-0.07623 z"
     id="path99" />
  <path
     style="fill:#000000;fill-opacity:1;fill-rule:evenodd;stroke:none;stroke-linecap:round;stroke-linejoin:round;stroke-opacity:1"
     d="m 134.6534,62.8197 0.0152,-0.07623 0.0432,-0.06462 0.0646,-0.04318 0.0762,-0.01516 h 0.3984 l 0.0762,0.01516 0.0646,0.04318 0.0432,0.06462 0.0152,0.07623 v 0.5478 l -0.0152,0.07623 -0.0432,0.06462 -0.0646,0.04318 -0.0762,0.01516 h -0.3984 l -0.0762,-0.01516 -0.0646,-0.04318 -0.0432,-0.06462 -0.0152,-0.07623 z"
     id="path100" />
  <path
     style="fill:#000000;fill-opacity:1;fill-rule:evenodd;stroke:none;stroke-linecap:round;stroke-linejoin:round;stroke-opacity:1"
     d="m 141.1782,69.5368 -0.0858,-0.01706 -0.0727,-0.04858 -0.0486,-0.0727 -0.0171,-0.08576 v -0.4482 l 0.0171,-0.08576 0.0486,-0.0727 0.0727,-0.04858 0.0858,-0.01706 h 0.498 l 0.0858,0.01706 0.0727,0.04858 0.0486,0.0727 0.0171,0.08576 v 0.4482 l -0.0171,0.08576 -0.0486,0.0727 -0.0727,0.04858 -0.0858,0.01706 z"
     id="path101" />
  <path
     style="fill:#000000;fill-opacity:1;fill-rule:evenodd;stroke:none;stroke-linecap:round;stroke-linejoin:round;stroke-opacity:1"
     d="m 141.1782,67.9868 -0.0858,-0.01706 -0.0727,-0.04858 -0.0486,-0.0727 -0.0171,-0.08576 v -0.4482 l 0.0171,-0.08576 0.0486,-0.0727 0.0727,-0.04858 0.0858,-0.01706 h 0.498 l 0.0858,0.01706 0.0727,0.04858 0.0486,0.0727 0.0171,0.08576 v 0.4482 l -0.0171,0.08576 -0.0486,0.0727 -0.0727,0.04858 -0.0858,0.01706 z"
     id="path102" />
  <path
     style="fill:#000000;fill-opacity:1;fill-rule:evenodd;stroke:none;stroke-linecap:round;stroke-linejoin:round;stroke-opacity:1"
     d="m 137.0646,66.3604 0.0762,0.01516 0.0646,0.04318 0.0432,0.06462 0.0152,0.07623 v 0.498 l -0.0152,0.07623 -0.0432,0.06462 -0.0646,0.04318 -0.0762,0.01516 h -0.3984 l -0.0762,-0.01516 -0.0646,-0.04318 -0.0432,-0.06462 -0.0152,-0.07623 v -0.498 l 0.0152,-0.07623 0.0432,-0.06462 0.0646,-0.04318 0.0762,-0.01516 z"
     id="path103" />
  <path
     style="fill:#000000;fill-opacity:1;fill-rule:evenodd;stroke:none;stroke-linecap:round;stroke-linejoin:round;stroke-opacity:1"
     d="m 135.1646,66.3604 0.0762,0.01516 0.0646,0.04318 0.0432,0.06462 0.0152,0.07623 v 0.498 l -0.0152,0.07623 -0.0432,0.06462 -0.0646,0.04318 -0.0762,0.01516 h -0.3984 l -0.0762,-0.01516 -0.0646,-0.04318 -0.0432,-0.06462 -0.0152,-0.07623 v -0.498 l 0.0152,-0.07623 0.0432,-0.06462 0.0646,-0.04318 0.0762,-0.01516 z"
     id="path104" />
  <path
     style="fill:#000000;fill-opacity:1;fill-rule:evenodd;stroke:none;stroke-linecap:round;stroke-linejoin:round;stroke-opacity:1"
     d="m 136.1146,68.3604 0.0762,0.01516 0.0646,0.04318 0.0432,0.06462 0.0152,0.07623 v 0.498 l -0.0152,0.07623 -0.0432,0.06462 -0.0646,0.04318 -0.0762,0.01516 h -0.3984 l -0.0762,-0.01516 -0.0646,-0.04318 -0.0432,-0.06462 -0.0152,-0.07623 v -0.498 l 0.0152,-0.07623 0.0432,-0.06462 0.0646,-0.04318 0.0762,-0.01516 z"
     id="path105" />
  <path
     style="fill:#000000;fill-opacity:1;fill-rule:evenodd;stroke:none;stroke-linecap:round;stroke-linejoin:round;stroke-opacity:1"
     d="m 142.0423,61.713 -0.0762,-0.01516 -0.0646,-0.04318 -0.0432,-0.06462 -0.0152,-0.07623 v -0.3984 l 0.0152,-0.07623 0.0432,-0.06462 0.0646,-0.04318 0.0762,-0.01516 h 0.5478 l 0.0762,0.01516 0.0646,0.04318 0.0432,0.06462 0.0152,0.07623 v 0.3984 l -0.0152,0.07623 -0.0432,0.06462 -0.0646,0.04318 -0.0762,0.01516 z"
     id="path106" />
  <path
     style="fill:#000000;fill-opacity:1;fill-rule:evenodd;stroke:none;stroke-linecap:round;stroke-linejoin:round;stroke-opacity:1"
     d="m 142.0423,60.063 -0.0762,-0.01516 -0.0646,-0.04318 -0.0432,-0.06462 -0.0152,-0.07623 v -0.3984 l 0.0152,-0.07623 0.0432,-0.06462 0.0646,-0.04318 0.0762,-0.01516 h 0.5478 l 0.0762,0.01516 0.0646,0.04318 0.0432,0.06462 0.0152,0.07623 v 0.3984 l -0.0152,0.07623 -0.0432,0.06462 -0.0646,0.04318 -0.0762,0.01516 z"
     id="path107" />
  <path
     style="fill:#000000;fill-opacity:1;fill-rule:evenodd;stroke:none;stroke-linecap:round;stroke-linejoin:round;stroke-opacity:1"
     d="m 136.0466,100.4007 -0.0152,0.0762 -0.0432,0.0646 -0.0646,0.0432 -0.0762,0.0152 h -0.3984 l -0.0762,-0.0152 -0.0646,-0.0432 -0.0432,-0.0646 -0.0152,-0.0762 v -0.5478 l 0.0152,-0.07623 0.0432,-0.06462 0.0646,-0.04318 0.0762,-0.01516 h 0.3984 l 0.0762,0.01516 0.0646,0.04318 0.0432,0.06462 0.0152,0.07623 z"
     id="path108" />
  <path
     style="fill:#000000;fill-opacity:1;fill-rule:evenodd;stroke:none;stroke-linecap:round;stroke-linejoin:round;stroke-opacity:1"
     d="m 134.3966,100.4007 -0.0152,0.0762 -0.0432,0.0646 -0.0646,0.0432 -0.0762,0.0152 h -0.3984 l -0.0762,-0.0152 -0.0646,-0.0432 -0.0432,-0.0646 -0.0152,-0.0762 v -0.5478 l 0.0152,-0.07623 0.0432,-0.06462 0.0646,-0.04318 0.0762,-0.01516 h 0.3984 l 0.0762,0.01516 0.0646,0.04318 0.0432,0.06462 0.0152,0.07623 z"
     id="path109" />
  <path
     style="fill:#000000;fill-opacity:1;fill-rule:evenodd;stroke:none;stroke-linecap:round;stroke-linejoin:round;stroke-opacity:1"
     d="m 119.6551,103.1041 0.0152,-0.0762 0.0432,-0.0646 0.0646,-0.0432 0.0762,-0.0152 h 0.3984 l 0.0762,0.0152 0.0646,0.0432 0.0432,0.0646 0.0152,0.0762 v 0.5478 l -0.0152,0.0762 -0.0432,0.0646 -0.0646,0.0432 -0.0762,0.0152 h -0.3984 l -0.0762,-0.0152 -0.0646,-0.0432 -0.0432,-0.0646 -0.0152,-0.0762 z"
     id="path110" />
  <path
     style="fill:#000000;fill-opacity:1;fill-rule:evenodd;stroke:none;stroke-linecap:round;stroke-linejoin:round;stroke-opacity:1"
     d="m 121.3051,103.1041 0.0152,-0.0762 0.0432,-0.0646 0.0646,-0.0432 0.0762,-0.0152 h 0.3984 l 0.0762,0.0152 0.0646,0.0432 0.0432,0.0646 0.0152,0.0762 v 0.5478 l -0.0152,0.0762 -0.0432,0.0646 -0.0646,0.0432 -0.0762,0.0152 h -0.3984 l -0.0762,-0.0152 -0.0646,-0.0432 -0.0432,-0.0646 -0.0152,-0.0762 z"
     id="path111" />
  <path
     style="fill:#000000;fill-opacity:1;fill-rule:evenodd;stroke:none;stroke-linecap:round;stroke-linejoin:round;stroke-opacity:1"
     d="m 103.546,98.0124 0.0152,-0.07623 0.0432,-0.06463 0.0646,-0.04318 0.0762,-0.01516 h 0.498 l 0.0762,0.01516 0.0646,0.04318 0.0432,0.06463 0.0152,0.07623 v 0.3984 l -0.0152,0.07623 -0.0432,0.06462 -0.0646,0.04318 -0.0762,0.01516 h -0.498 l -0.0762,-0.01516 -0.0646,-0.04318 -0.0432,-0.06462 -0.0152,-0.07623 z"
     id="path112" />
  <path
     style="fill:#000000;fill-opacity:1;fill-rule:evenodd;stroke:none;stroke-linecap:round;stroke-linejoin:round;stroke-opacity:1"
     d="m 103.546,99.9124 0.0152,-0.07623 0.0432,-0.06462 0.0646,-0.04318 0.0762,-0.01516 h 0.498 l 0.0762,0.01516 0.0646,0.04318 0.0432,0.06462 0.0152,0.07623 v 0.3984 l -0.0152,0.0762 -0.0432,0.0646 -0.0646,0.0432 -0.0762,0.0152 h -0.498 l -0.0762,-0.0152 -0.0646,-0.0432 -0.0432,-0.0646 -0.0152,-0.0762 z"
     id="path113" />
  <path
     style="fill:#000000;fill-opacity:1;fill-rule:evenodd;stroke:none;stroke-linecap:round;stroke-linejoin:round;stroke-opacity:1"
     d="m 105.546,98.9624 0.0152,-0.07623 0.0432,-0.06462 0.0646,-0.04318 0.0762,-0.01516 h 0.498 l 0.0762,0.01516 0.0646,0.04318 0.0432,0.06462 0.0152,0.07623 v 0.3984 l -0.0152,0.07623 -0.0432,0.06462 -0.0646,0.04318 -0.0762,0.01516 h -0.498 l -0.0762,-0.01516 -0.0646,-0.04318 -0.0432,-0.06462 -0.0152,-0.07623 z"
     id="path114" />
  <path
     style="fill:#000000;fill-opacity:1;fill-rule:evenodd;stroke:none;stroke-linecap:round;stroke-linejoin:round;stroke-opacity:1"
     d="m 129.1886,65.1455 -0.0152,0.07623 -0.0432,0.06462 -0.0646,0.04318 -0.0762,0.01516 h -0.3984 l -0.0762,-0.01516 -0.0646,-0.04318 -0.0432,-0.06462 -0.0152,-0.07623 v -0.5478 l 0.0152,-0.07623 0.0432,-0.06462 0.0646,-0.04318 0.0762,-0.01516 h 0.3984 l 0.0762,0.01516 0.0646,0.04318 0.0432,0.06462 0.0152,0.07623 z"
     id="path115" />
  <path
     style="fill:#000000;fill-opacity:1;fill-rule:evenodd;stroke:none;stroke-linecap:round;stroke-linejoin:round;stroke-opacity:1"
     d="m 127.5386,65.1455 -0.0152,0.07623 -0.0432,0.06462 -0.0646,0.04318 -0.0762,0.01516 h -0.3984 l -0.0762,-0.01516 -0.0646,-0.04318 -0.0432,-0.06462 -0.0152,-0.07623 v -0.5478 l 0.0152,-0.07623 0.0432,-0.06462 0.0646,-0.04318 0.0762,-0.01516 h 0.3984 l 0.0762,0.01516 0.0646,0.04318 0.0432,0.06462 0.0152,0.07623 z"
     id="path116" />
  <path
     style="fill:#000000;fill-opacity:1;fill-rule:evenodd;stroke:none;stroke-linecap:round;stroke-linejoin:round;stroke-opacity:1"
     d="m 108.0974,95.4746 0.0858,0.01706 0.0727,0.04858 0.0486,0.0727 0.0171,0.08576 v 0.4482 l -0.0171,0.08576 -0.0486,0.0727 -0.0727,0.04858 -0.0858,0.01706 h -0.498 l -0.0858,-0.01706 -0.0727,-0.04858 -0.0486,-0.0727 -0.0171,-0.08576 v -0.4482 l 0.0171,-0.08576 0.0486,-0.0727 0.0727,-0.04858 0.0858,-0.01706 z"
     id="path117" />
  <path
     style="fill:#000000;fill-opacity:1;fill-rule:evenodd;stroke:none;stroke-linecap:round;stroke-linejoin:round;stroke-opacity:1"
     d="m 108.0974,97.0246 0.0858,0.01706 0.0727,0.04858 0.0486,0.0727 0.0171,0.08576 v 0.4482 l -0.0171,0.08576 -0.0486,0.0727 -0.0727,0.04858 -0.0858,0.01706 h -0.498 l -0.0858,-0.01706 -0.0727,-0.04858 -0.0486,-0.0727 -0.0171,-0.08576 v -0.4482 l 0.0171,-0.08576 0.0486,-0.0727 0.0727,-0.04858 0.0858,-0.01706 z"
     id="path118" />
  <path
     style="fill:#000000;fill-opacity:1;fill-rule:evenodd;stroke:none;stroke-linecap:round;stroke-linejoin:round;stroke-opacity:1"
     d="m 155.8278,109.5398 v 1.494 h -1.494 v -1.494 z"
     id="path119" />
  <path
     style="fill:#000000;fill-opacity:1;fill-rule:evenodd;stroke:none;stroke-linecap:round;stroke-linejoin:round;stroke-opacity:1"
     d="m 148.0278,109.5398 v 1.494 h -1.494 v -1.494 z"
     id="path120" />
  <path
     style="fill:#000000;fill-opacity:1;fill-rule:evenodd;stroke:none;stroke-linecap:round;stroke-linejoin:round;stroke-opacity:1"
     d="m 137.2526,65.2217 -0.0152,0.07623 -0.0432,0.06462 -0.0646,0.04318 -0.0762,0.01516 h -0.3984 l -0.0762,-0.01516 -0.0646,-0.04318 -0.0432,-0.06462 -0.0152,-0.07623 v -0.5478 l 0.0152,-0.07623 0.0432,-0.06462 0.0646,-0.04318 0.0762,-0.01516 h 0.3984 l 0.0762,0.01516 0.0646,0.04318 0.0432,0.06462 0.0152,0.07623 z"
     id="path121" />
  <path
     style="fill:#000000;fill-opacity:1;fill-rule:evenodd;stroke:none;stroke-linecap:round;stroke-linejoin:round;stroke-opacity:1"
     d="m 135.6026,65.2217 -0.0152,0.07623 -0.0432,0.06462 -0.0646,0.04318 -0.0762,0.01516 h -0.3984 l -0.0762,-0.01516 -0.0646,-0.04318 -0.0432,-0.06462 -0.0152,-0.07623 v -0.5478 l 0.0152,-0.07623 0.0432,-0.06462 0.0646,-0.04318 0.0762,-0.01516 h 0.3984 l 0.0762,0.01516 0.0646,0.04318 0.0432,0.06462 0.0152,0.07623 z"
     id="path122" />
  <path
     style="fill:#000000;fill-opacity:1;fill-rule:evenodd;stroke:none;stroke-linecap:round;stroke-linejoin:round;stroke-opacity:1"
     d="m 153.285,98.176 0.0171,-0.08576 0.0486,-0.0727 0.0727,-0.04858 0.0858,-0.01706 h 0.4482 l 0.0858,0.01706 0.0727,0.04858 0.0486,0.0727 0.0171,0.08576 v 0.498 l -0.0171,0.08576 -0.0486,0.0727 -0.0727,0.04858 -0.0858,0.01706 h -0.4482 l -0.0858,-0.01706 -0.0727,-0.04858 -0.0486,-0.0727 -0.0171,-0.08576 z"
     id="path123" />
  <path
     style="fill:#000000;fill-opacity:1;fill-rule:evenodd;stroke:none;stroke-linecap:round;stroke-linejoin:round;stroke-opacity:1"
     d="m 154.835,98.176 0.0171,-0.08576 0.0486,-0.0727 0.0727,-0.04858 0.0858,-0.01706 h 0.4482 l 0.0858,0.01706 0.0727,0.04858 0.0486,0.0727 0.0171,0.08576 v 0.498 l -0.0171,0.08576 -0.0486,0.0727 -0.0727,0.04858 -0.0858,0.01706 h -0.4482 l -0.0858,-0.01706 -0.0727,-0.04858 -0.0486,-0.0727 -0.0171,-0.08576 z"
     id="path124" />
  <path
     style="fill:#000000;fill-opacity:1;fill-rule:evenodd;stroke:none;stroke-linecap:round;stroke-linejoin:round;stroke-opacity:1"
     d="m 120.4558,64.5977 0.0152,-0.07623 0.0432,-0.06462 0.0646,-0.04318 0.0762,-0.01516 h 0.3984 l 0.0762,0.01516 0.0646,0.04318 0.0432,0.06462 0.0152,0.07623 v 0.5478 l -0.0152,0.07623 -0.0432,0.06462 -0.0646,0.04318 -0.0762,0.01516 h -0.3984 l -0.0762,-0.01516 -0.0646,-0.04318 -0.0432,-0.06462 -0.0152,-0.07623 z"
     id="path139" />
  <path
     style="fill:#000000;fill-opacity:1;fill-rule:evenodd;stroke:none;stroke-linecap:round;stroke-linejoin:round;stroke-opacity:1"
     d="m 122.1058,64.5977 0.0152,-0.07623 0.0432,-0.06462 0.0646,-0.04318 0.0762,-0.01516 h 0.3984 l 0.0762,0.01516 0.0646,0.04318 0.0432,0.06462 0.0152,0.07623 v 0.5478 l -0.0152,0.07623 -0.0432,0.06462 -0.0646,0.04318 -0.0762,0.01516 h -0.3984 l -0.0762,-0.01516 -0.0646,-0.04318 -0.0432,-0.06462 -0.0152,-0.07623 z"
     id="path140" />
  <path
     style="fill:#000000;fill-opacity:1;fill-rule:evenodd;stroke:none;stroke-linecap:round;stroke-linejoin:round;stroke-opacity:1"
     d="m 101.9606,81.9314 -0.0858,-0.01706 -0.0727,-0.04858 -0.0486,-0.0727 -0.0171,-0.08576 v -0.4482 l 0.0171,-0.08576 0.0486,-0.0727 0.0727,-0.04858 0.0858,-0.01706 h 0.498 l 0.0858,0.01706 0.0727,0.04858 0.0486,0.0727 0.0171,0.08576 v 0.4482 l -0.0171,0.08576 -0.0486,0.0727 -0.0727,0.04858 -0.0858,0.01706 z"
     id="path141" />
  <path
     style="fill:#000000;fill-opacity:1;fill-rule:evenodd;stroke:none;stroke-linecap:round;stroke-linejoin:round;stroke-opacity:1"
     d="m 101.9606,80.3814 -0.0858,-0.01706 -0.0727,-0.04858 -0.0486,-0.0727 -0.0171,-0.08576 v -0.4482 l 0.0171,-0.08576 0.0486,-0.0727 0.0727,-0.04858 0.0858,-0.01706 h 0.498 l 0.0858,0.01706 0.0727,0.04858 0.0486,0.0727 0.0171,0.08576 v 0.4482 l -0.0171,0.08576 -0.0486,0.0727 -0.0727,0.04858 -0.0858,0.01706 z"
     id="path142" />
  <path
     style="fill:#000000;fill-opacity:1;fill-rule:evenodd;stroke:none;stroke-linecap:round;stroke-linejoin:round;stroke-opacity:1"
     d="m 109.5461,103.1041 0.0152,-0.0762 0.0432,-0.0646 0.0646,-0.0432 0.0762,-0.0152 h 0.3984 l 0.0762,0.0152 0.0646,0.0432 0.0432,0.0646 0.0152,0.0762 v 0.5478 l -0.0152,0.0762 -0.0432,0.0646 -0.0646,0.0432 -0.0762,0.0152 h -0.3984 l -0.0762,-0.0152 -0.0646,-0.0432 -0.0432,-0.0646 -0.0152,-0.0762 z"
     id="path143" />
  <path
     style="fill:#000000;fill-opacity:1;fill-rule:evenodd;stroke:none;stroke-linecap:round;stroke-linejoin:round;stroke-opacity:1"
     d="m 111.1961,103.1041 0.0152,-0.0762 0.0432,-0.0646 0.0646,-0.0432 0.0762,-0.0152 h 0.3984 l 0.0762,0.0152 0.0646,0.0432 0.0432,0.0646 0.0152,0.0762 v 0.5478 l -0.0152,0.0762 -0.0432,0.0646 -0.0646,0.0432 -0.0762,0.0152 h -0.3984 l -0.0762,-0.0152 -0.0646,-0.0432 -0.0432,-0.0646 -0.0152,-0.0762 z"
     id="path144" />
  <path
     style="fill:#000000;fill-opacity:1;fill-rule:evenodd;stroke:none;stroke-linecap:round;stroke-linejoin:round;stroke-opacity:1"
     d="m 104.8821,108.9449 -0.0762,-0.0152 -0.0646,-0.0432 -0.0432,-0.0646 -0.0152,-0.0762 v -0.3984 l 0.0152,-0.0762 0.0432,-0.0646 0.0646,-0.0432 0.0762,-0.0152 h 0.5478 l 0.0762,0.0152 0.0646,0.0432 0.0432,0.0646 0.0152,0.0762 v 0.3984 l -0.0152,0.0762 -0.0432,0.0646 -0.0646,0.0432 -0.0762,0.0152 z"
     id="path145" />
  <path
     style="fill:#000000;fill-opacity:1;fill-rule:evenodd;stroke:none;stroke-linecap:round;stroke-linejoin:round;stroke-opacity:1"
     d="m 104.8821,107.2949 -0.0762,-0.0152 -0.0646,-0.0432 -0.0432,-0.0646 -0.0152,-0.0762 v -0.3984 l 0.0152,-0.0762 0.0432,-0.0646 0.0646,-0.0432 0.0762,-0.0152 h 0.5478 l 0.0762,0.0152 0.0646,0.0432 0.0432,0.0646 0.0152,0.0762 v 0.3984 l -0.0152,0.0762 -0.0432,0.0646 -0.0646,0.0432 -0.0762,0.0152 z"
     id="path146" />
  <rect
     style="fill:none;stroke:#000000;stroke-width:0.1;stroke-dasharray:none"
     id="rect146"
     width="17.320562"
     height="0.56199998"
     x="124.80317"
     y="71.083481" />
  <rect
     style="fill:none;stroke:#000000;stroke-width:0.1;stroke-dasharray:none"
     id="rect147"
     width="17.320562"
     height="0.56199998"
     x="124.80317"
     y="88.603973" />
  <rect
     style="fill:none;stroke:#000000;stroke-width:0.1;stroke-dasharray:none"
     id="rect148"
     width="0.66145831"
     height="12.270052"
     x="123.65964"
     y="73.951042" />
  <rect
     style="fill:none;stroke:#000000;stroke-width:0.1;stroke-dasharray:none"
     id="rect149"
     width="3.2742188"
     height="3.3569009"
     x="132.73814"
     y="77.737892" />
  <rect
     style="fill:none;stroke:#000000;stroke-width:0.1;stroke-dasharray:none"
     id="rect150"
     width="8.1487341"
     height="0.76804167"
     x="109.44594"
     y="95.649284" />
  <rect
     style="fill:none;stroke:#000000;stroke-width:0.1;stroke-dasharray:none"
     id="rect151"
     width="8.1487341"
     height="0.76804167"
     x="109.44594"
     y="100.60376" />
  <rect
     style="fill:none;stroke:#000000;stroke-width:0.1;stroke-dasharray:none"
     id="rect152"
     width="8.1487341"
     height="0.76804167"
     x="109.44594"
     y="105.30534" />
  <rect
     style="fill:none;stroke:#000000;stroke-width:0.1;stroke-dasharray:none"
     id="rect153"
     width="8.1487341"
     height="0.76804167"
     x="109.46467"
     y="110.25045" />
</svg>
