M48
;DRILL file {KiCad 5.0-dev-unknown-9241a39~61~ubuntu17.10.1} date Thu Apr 12 19:06:31 2018
;FORMAT={-:-/ absolute / inch / decimal}
FMAT,2
INCH,TZ
T1C0.0157
T2C0.0315
T3C0.0394
T4C0.0472
T5C0.0512
T6C0.0551
T7C0.1260
%
G90
G05
M72
T1
X2.9429Y-3.248
X2.9921Y-2.9724
X3.0807Y-3.0315
X3.1102Y-3.6417
X3.2283Y-2.9724
X3.2579Y-3.6417
X3.3366Y-2.2441
X3.4547Y-2.2638
X3.4547Y-3.6713
X3.4961Y-3.0748
X3.5236Y-2.5984
X3.5827Y-2.9488
X3.6575Y-2.9213
X3.6575Y-3.6496
X3.7008Y-2.9882
X3.7106Y-2.185
T2
X3.0063Y-2.8374
X3.0063Y-3.7374
X3.1063Y-2.8374
X3.1063Y-3.7374
X3.2063Y-2.8374
X3.2063Y-3.7374
X3.3063Y-2.8374
X3.3063Y-3.7374
X3.4063Y-2.8374
X3.4063Y-3.7374
X3.5063Y-2.8374
X3.5063Y-3.7374
X3.6063Y-2.8374
X3.6063Y-3.7374
X3.7063Y-2.8374
X3.7063Y-3.7374
T3
X2.2165Y-1.7126
X2.2165Y-1.9094
X3.374Y-1.5079
X3.374Y-2.1142
T4
X3.8287Y-3.1449
X3.8287Y-3.2949
X3.8287Y-3.4449
X3.8287Y-2.2173
X3.8287Y-2.3673
X3.8287Y-2.5173
X3.8287Y-2.6673
X3.8287Y-1.5185
X3.8287Y-1.6685
X3.8287Y-1.8185
X3.8287Y-1.9685
T5
X2.1913Y-2.3425
X2.1913Y-2.6378
X2.3898Y-2.3425
X2.3898Y-2.6378
X3.189Y-2.3425
X3.189Y-2.6378
T6
X1.9291Y-1.7126
X1.9291Y-1.9094
X1.9291Y-3.1299
X1.9291Y-3.3268
T7
X3.8976Y-3.7402
X1.7717Y-3.7402
X3.5925Y-1.5354
T0
M30
