G04 #@! TF.GenerationSoftware,KiCad,Pcbnew,5.0-dev-unknown-9241a39~61~ubuntu17.10.1*
G04 #@! TF.CreationDate,2018-04-12T19:06:24+02:00*
G04 #@! TF.ProjectId,power_monitor,706F7765725F6D6F6E69746F722E6B69,rev?*
G04 #@! TF.SameCoordinates,Original*
G04 #@! TF.FileFunction,Legend,Top*
G04 #@! TF.FilePolarity,Positive*
%FSLAX46Y46*%
G04 Gerber Fmt 4.6, Leading zero omitted, Abs format (unit mm)*
G04 Created by KiCad (PCBNEW 5.0-dev-unknown-9241a39~61~ubuntu17.10.1) date Thu Apr 12 19:06:24 2018*
%MOMM*%
%LPD*%
G01*
G04 APERTURE LIST*
%ADD10C,0.250000*%
%ADD11C,0.200000*%
%ADD12C,0.300000*%
%ADD13C,0.100000*%
%ADD14C,0.381000*%
%ADD15C,1.270000*%
%ADD16C,0.150000*%
%ADD17C,0.120000*%
G04 APERTURE END LIST*
D10*
X81785714Y-50523809D02*
X82452380Y-50523809D01*
X81880952Y-50523809D02*
X81833333Y-50476190D01*
X81785714Y-50380952D01*
X81785714Y-50238095D01*
X81833333Y-50142857D01*
X81928571Y-50095238D01*
X82452380Y-50095238D01*
X81785714Y-49190476D02*
X82452380Y-49190476D01*
X81785714Y-49619047D02*
X82309523Y-49619047D01*
X82404761Y-49571428D01*
X82452380Y-49476190D01*
X82452380Y-49333333D01*
X82404761Y-49238095D01*
X82357142Y-49190476D01*
X82452380Y-48714285D02*
X81785714Y-48714285D01*
X81880952Y-48714285D02*
X81833333Y-48666666D01*
X81785714Y-48571428D01*
X81785714Y-48428571D01*
X81833333Y-48333333D01*
X81928571Y-48285714D01*
X82452380Y-48285714D01*
X81928571Y-48285714D02*
X81833333Y-48238095D01*
X81785714Y-48142857D01*
X81785714Y-48000000D01*
X81833333Y-47904761D01*
X81928571Y-47857142D01*
X82452380Y-47857142D01*
X82452380Y-47380952D02*
X81452380Y-47380952D01*
X81833333Y-47380952D02*
X81785714Y-47285714D01*
X81785714Y-47095238D01*
X81833333Y-47000000D01*
X81880952Y-46952380D01*
X81976190Y-46904761D01*
X82261904Y-46904761D01*
X82357142Y-46952380D01*
X82404761Y-47000000D01*
X82452380Y-47095238D01*
X82452380Y-47285714D01*
X82404761Y-47380952D01*
X82404761Y-46095238D02*
X82452380Y-46190476D01*
X82452380Y-46380952D01*
X82404761Y-46476190D01*
X82309523Y-46523809D01*
X81928571Y-46523809D01*
X81833333Y-46476190D01*
X81785714Y-46380952D01*
X81785714Y-46190476D01*
X81833333Y-46095238D01*
X81928571Y-46047619D01*
X82023809Y-46047619D01*
X82119047Y-46523809D01*
X82452380Y-45619047D02*
X81785714Y-45619047D01*
X81976190Y-45619047D02*
X81880952Y-45571428D01*
X81833333Y-45523809D01*
X81785714Y-45428571D01*
X81785714Y-45333333D01*
X82452380Y-44238095D02*
X81452380Y-44238095D01*
X82452380Y-43809523D02*
X81928571Y-43809523D01*
X81833333Y-43857142D01*
X81785714Y-43952380D01*
X81785714Y-44095238D01*
X81833333Y-44190476D01*
X81880952Y-44238095D01*
X82404761Y-42952380D02*
X82452380Y-43047619D01*
X82452380Y-43238095D01*
X82404761Y-43333333D01*
X82309523Y-43380952D01*
X81928571Y-43380952D01*
X81833333Y-43333333D01*
X81785714Y-43238095D01*
X81785714Y-43047619D01*
X81833333Y-42952380D01*
X81928571Y-42904761D01*
X82023809Y-42904761D01*
X82119047Y-43380952D01*
X82452380Y-42476190D02*
X81785714Y-42476190D01*
X81976190Y-42476190D02*
X81880952Y-42428571D01*
X81833333Y-42380952D01*
X81785714Y-42285714D01*
X81785714Y-42190476D01*
X82404761Y-41476190D02*
X82452380Y-41571428D01*
X82452380Y-41761904D01*
X82404761Y-41857142D01*
X82309523Y-41904761D01*
X81928571Y-41904761D01*
X81833333Y-41857142D01*
X81785714Y-41761904D01*
X81785714Y-41571428D01*
X81833333Y-41476190D01*
X81928571Y-41428571D01*
X82023809Y-41428571D01*
X82119047Y-41904761D01*
D11*
X86000000Y-51500000D02*
X86000000Y-40500000D01*
X83000000Y-51500000D02*
X86000000Y-51500000D01*
X83000000Y-40500000D02*
X83000000Y-51500000D01*
X86000000Y-40500000D02*
X83000000Y-40500000D01*
X84500000Y-82000000D02*
X82500000Y-80000000D01*
X84500000Y-85500000D02*
X84500000Y-82000000D01*
D10*
X77142857Y-87077380D02*
X76571428Y-87077380D01*
X76857142Y-87077380D02*
X76857142Y-86077380D01*
X76761904Y-86220238D01*
X76666666Y-86315476D01*
X76571428Y-86363095D01*
X77571428Y-86982142D02*
X77619047Y-87029761D01*
X77571428Y-87077380D01*
X77523809Y-87029761D01*
X77571428Y-86982142D01*
X77571428Y-87077380D01*
X77571428Y-86458333D02*
X77619047Y-86505952D01*
X77571428Y-86553571D01*
X77523809Y-86505952D01*
X77571428Y-86458333D01*
X77571428Y-86553571D01*
X78761904Y-86172619D02*
X78809523Y-86125000D01*
X78904761Y-86077380D01*
X79142857Y-86077380D01*
X79238095Y-86125000D01*
X79285714Y-86172619D01*
X79333333Y-86267857D01*
X79333333Y-86363095D01*
X79285714Y-86505952D01*
X78714285Y-87077380D01*
X79333333Y-87077380D01*
X79952380Y-86077380D02*
X80047619Y-86077380D01*
X80142857Y-86125000D01*
X80190476Y-86172619D01*
X80238095Y-86267857D01*
X80285714Y-86458333D01*
X80285714Y-86696428D01*
X80238095Y-86886904D01*
X80190476Y-86982142D01*
X80142857Y-87029761D01*
X80047619Y-87077380D01*
X79952380Y-87077380D01*
X79857142Y-87029761D01*
X79809523Y-86982142D01*
X79761904Y-86886904D01*
X79714285Y-86696428D01*
X79714285Y-86458333D01*
X79761904Y-86267857D01*
X79809523Y-86172619D01*
X79857142Y-86125000D01*
X79952380Y-86077380D01*
X80714285Y-87077380D02*
X80714285Y-86077380D01*
X81285714Y-87077380D02*
X80857142Y-86505952D01*
X81285714Y-86077380D02*
X80714285Y-86648809D01*
X81714285Y-87077380D02*
X81714285Y-86077380D01*
X81714285Y-86553571D02*
X82285714Y-86553571D01*
X82285714Y-87077380D02*
X82285714Y-86077380D01*
X82666666Y-86410714D02*
X83190476Y-86410714D01*
X82666666Y-87077380D01*
X83190476Y-87077380D01*
X84333333Y-87077380D02*
X84333333Y-86077380D01*
X84333333Y-86458333D02*
X84428571Y-86410714D01*
X84619047Y-86410714D01*
X84714285Y-86458333D01*
X84761904Y-86505952D01*
X84809523Y-86601190D01*
X84809523Y-86886904D01*
X84761904Y-86982142D01*
X84714285Y-87029761D01*
X84619047Y-87077380D01*
X84428571Y-87077380D01*
X84333333Y-87029761D01*
X85666666Y-87077380D02*
X85666666Y-86553571D01*
X85619047Y-86458333D01*
X85523809Y-86410714D01*
X85333333Y-86410714D01*
X85238095Y-86458333D01*
X85666666Y-87029761D02*
X85571428Y-87077380D01*
X85333333Y-87077380D01*
X85238095Y-87029761D01*
X85190476Y-86934523D01*
X85190476Y-86839285D01*
X85238095Y-86744047D01*
X85333333Y-86696428D01*
X85571428Y-86696428D01*
X85666666Y-86648809D01*
X86142857Y-86410714D02*
X86142857Y-87077380D01*
X86142857Y-86505952D02*
X86190476Y-86458333D01*
X86285714Y-86410714D01*
X86428571Y-86410714D01*
X86523809Y-86458333D01*
X86571428Y-86553571D01*
X86571428Y-87077380D01*
X87476190Y-87077380D02*
X87476190Y-86077380D01*
X87476190Y-87029761D02*
X87380952Y-87077380D01*
X87190476Y-87077380D01*
X87095238Y-87029761D01*
X87047619Y-86982142D01*
X87000000Y-86886904D01*
X87000000Y-86601190D01*
X87047619Y-86505952D01*
X87095238Y-86458333D01*
X87190476Y-86410714D01*
X87380952Y-86410714D01*
X87476190Y-86458333D01*
X87857142Y-86410714D02*
X88047619Y-87077380D01*
X88238095Y-86601190D01*
X88428571Y-87077380D01*
X88619047Y-86410714D01*
X89000000Y-87077380D02*
X89000000Y-86410714D01*
X89000000Y-86077380D02*
X88952380Y-86125000D01*
X89000000Y-86172619D01*
X89047619Y-86125000D01*
X89000000Y-86077380D01*
X89000000Y-86172619D01*
X89904761Y-87077380D02*
X89904761Y-86077380D01*
X89904761Y-87029761D02*
X89809523Y-87077380D01*
X89619047Y-87077380D01*
X89523809Y-87029761D01*
X89476190Y-86982142D01*
X89428571Y-86886904D01*
X89428571Y-86601190D01*
X89476190Y-86505952D01*
X89523809Y-86458333D01*
X89619047Y-86410714D01*
X89809523Y-86410714D01*
X89904761Y-86458333D01*
X90238095Y-86410714D02*
X90619047Y-86410714D01*
X90380952Y-86077380D02*
X90380952Y-86934523D01*
X90428571Y-87029761D01*
X90523809Y-87077380D01*
X90619047Y-87077380D01*
X90952380Y-87077380D02*
X90952380Y-86077380D01*
X91380952Y-87077380D02*
X91380952Y-86553571D01*
X91333333Y-86458333D01*
X91238095Y-86410714D01*
X91095238Y-86410714D01*
X91000000Y-86458333D01*
X90952380Y-86505952D01*
X76523809Y-87827380D02*
X77142857Y-87827380D01*
X76809523Y-88208333D01*
X76952380Y-88208333D01*
X77047619Y-88255952D01*
X77095238Y-88303571D01*
X77142857Y-88398809D01*
X77142857Y-88636904D01*
X77095238Y-88732142D01*
X77047619Y-88779761D01*
X76952380Y-88827380D01*
X76666666Y-88827380D01*
X76571428Y-88779761D01*
X76523809Y-88732142D01*
X77571428Y-88732142D02*
X77619047Y-88779761D01*
X77571428Y-88827380D01*
X77523809Y-88779761D01*
X77571428Y-88732142D01*
X77571428Y-88827380D01*
X77571428Y-88208333D02*
X77619047Y-88255952D01*
X77571428Y-88303571D01*
X77523809Y-88255952D01*
X77571428Y-88208333D01*
X77571428Y-88303571D01*
X78952380Y-88255952D02*
X78857142Y-88208333D01*
X78809523Y-88160714D01*
X78761904Y-88065476D01*
X78761904Y-88017857D01*
X78809523Y-87922619D01*
X78857142Y-87875000D01*
X78952380Y-87827380D01*
X79142857Y-87827380D01*
X79238095Y-87875000D01*
X79285714Y-87922619D01*
X79333333Y-88017857D01*
X79333333Y-88065476D01*
X79285714Y-88160714D01*
X79238095Y-88208333D01*
X79142857Y-88255952D01*
X78952380Y-88255952D01*
X78857142Y-88303571D01*
X78809523Y-88351190D01*
X78761904Y-88446428D01*
X78761904Y-88636904D01*
X78809523Y-88732142D01*
X78857142Y-88779761D01*
X78952380Y-88827380D01*
X79142857Y-88827380D01*
X79238095Y-88779761D01*
X79285714Y-88732142D01*
X79333333Y-88636904D01*
X79333333Y-88446428D01*
X79285714Y-88351190D01*
X79238095Y-88303571D01*
X79142857Y-88255952D01*
X79952380Y-87827380D02*
X80047619Y-87827380D01*
X80142857Y-87875000D01*
X80190476Y-87922619D01*
X80238095Y-88017857D01*
X80285714Y-88208333D01*
X80285714Y-88446428D01*
X80238095Y-88636904D01*
X80190476Y-88732142D01*
X80142857Y-88779761D01*
X80047619Y-88827380D01*
X79952380Y-88827380D01*
X79857142Y-88779761D01*
X79809523Y-88732142D01*
X79761904Y-88636904D01*
X79714285Y-88446428D01*
X79714285Y-88208333D01*
X79761904Y-88017857D01*
X79809523Y-87922619D01*
X79857142Y-87875000D01*
X79952380Y-87827380D01*
X80714285Y-88827380D02*
X80714285Y-87827380D01*
X81285714Y-88827380D02*
X80857142Y-88255952D01*
X81285714Y-87827380D02*
X80714285Y-88398809D01*
X81714285Y-88827380D02*
X81714285Y-87827380D01*
X81714285Y-88303571D02*
X82285714Y-88303571D01*
X82285714Y-88827380D02*
X82285714Y-87827380D01*
X82666666Y-88160714D02*
X83190476Y-88160714D01*
X82666666Y-88827380D01*
X83190476Y-88827380D01*
X84333333Y-88827380D02*
X84333333Y-87827380D01*
X84333333Y-88208333D02*
X84428571Y-88160714D01*
X84619047Y-88160714D01*
X84714285Y-88208333D01*
X84761904Y-88255952D01*
X84809523Y-88351190D01*
X84809523Y-88636904D01*
X84761904Y-88732142D01*
X84714285Y-88779761D01*
X84619047Y-88827380D01*
X84428571Y-88827380D01*
X84333333Y-88779761D01*
X85666666Y-88827380D02*
X85666666Y-88303571D01*
X85619047Y-88208333D01*
X85523809Y-88160714D01*
X85333333Y-88160714D01*
X85238095Y-88208333D01*
X85666666Y-88779761D02*
X85571428Y-88827380D01*
X85333333Y-88827380D01*
X85238095Y-88779761D01*
X85190476Y-88684523D01*
X85190476Y-88589285D01*
X85238095Y-88494047D01*
X85333333Y-88446428D01*
X85571428Y-88446428D01*
X85666666Y-88398809D01*
X86142857Y-88160714D02*
X86142857Y-88827380D01*
X86142857Y-88255952D02*
X86190476Y-88208333D01*
X86285714Y-88160714D01*
X86428571Y-88160714D01*
X86523809Y-88208333D01*
X86571428Y-88303571D01*
X86571428Y-88827380D01*
X87476190Y-88827380D02*
X87476190Y-87827380D01*
X87476190Y-88779761D02*
X87380952Y-88827380D01*
X87190476Y-88827380D01*
X87095238Y-88779761D01*
X87047619Y-88732142D01*
X87000000Y-88636904D01*
X87000000Y-88351190D01*
X87047619Y-88255952D01*
X87095238Y-88208333D01*
X87190476Y-88160714D01*
X87380952Y-88160714D01*
X87476190Y-88208333D01*
X87857142Y-88160714D02*
X88047619Y-88827380D01*
X88238095Y-88351190D01*
X88428571Y-88827380D01*
X88619047Y-88160714D01*
X89000000Y-88827380D02*
X89000000Y-88160714D01*
X89000000Y-87827380D02*
X88952380Y-87875000D01*
X89000000Y-87922619D01*
X89047619Y-87875000D01*
X89000000Y-87827380D01*
X89000000Y-87922619D01*
X89904761Y-88827380D02*
X89904761Y-87827380D01*
X89904761Y-88779761D02*
X89809523Y-88827380D01*
X89619047Y-88827380D01*
X89523809Y-88779761D01*
X89476190Y-88732142D01*
X89428571Y-88636904D01*
X89428571Y-88351190D01*
X89476190Y-88255952D01*
X89523809Y-88208333D01*
X89619047Y-88160714D01*
X89809523Y-88160714D01*
X89904761Y-88208333D01*
X90238095Y-88160714D02*
X90619047Y-88160714D01*
X90380952Y-87827380D02*
X90380952Y-88684523D01*
X90428571Y-88779761D01*
X90523809Y-88827380D01*
X90619047Y-88827380D01*
X90952380Y-88827380D02*
X90952380Y-87827380D01*
X91380952Y-88827380D02*
X91380952Y-88303571D01*
X91333333Y-88208333D01*
X91238095Y-88160714D01*
X91095238Y-88160714D01*
X91000000Y-88208333D01*
X90952380Y-88255952D01*
D12*
X47571428Y-55678571D02*
X47571428Y-54178571D01*
X48428571Y-55678571D01*
X48428571Y-54178571D01*
D11*
X69500000Y-54000000D02*
X69500000Y-51500000D01*
X69500000Y-49000000D02*
X69500000Y-46500000D01*
X69500000Y-44500000D02*
X69500000Y-42000000D01*
X69500000Y-39500000D02*
X69500000Y-37000000D01*
X69500000Y-59000000D02*
X69500000Y-56500000D01*
X69500000Y-63500000D02*
X69500000Y-61000000D01*
X69500000Y-68500000D02*
X69500000Y-66000000D01*
X69500000Y-73500000D02*
X69500000Y-71000000D01*
X69500000Y-78000000D02*
X69500000Y-75500000D01*
X69500000Y-83000000D02*
X69500000Y-80500000D01*
X69500000Y-88000000D02*
X69500000Y-85500000D01*
X69500000Y-92500000D02*
X69500000Y-90000000D01*
X69500000Y-97500000D02*
X69500000Y-95000000D01*
D12*
X48571428Y-73678571D02*
X48571428Y-72178571D01*
X49428571Y-73678571D01*
X49428571Y-72178571D01*
X49464285Y-90178571D02*
X48750000Y-90178571D01*
X48750000Y-88678571D01*
X49464285Y-39378571D02*
X48750000Y-39378571D01*
X48750000Y-37878571D01*
D13*
X54000000Y-56100000D02*
X54000000Y-35900000D01*
X54000000Y-35900000D02*
X88000000Y-35900000D01*
X88000000Y-35900000D02*
X88000000Y-56100000D01*
X88000000Y-56100000D02*
X54000000Y-56100000D01*
D14*
X56857000Y-93647000D02*
X56730000Y-93139000D01*
X58000000Y-91361000D02*
X56857000Y-93647000D01*
X56603000Y-91361000D02*
X58000000Y-91361000D01*
X58127000Y-89075000D02*
X56603000Y-91361000D01*
X58381000Y-89456000D02*
X58254000Y-88948000D01*
X59143000Y-88948000D02*
X58381000Y-89456000D01*
X57365000Y-90980000D02*
X59143000Y-88948000D01*
X58635000Y-90980000D02*
X57365000Y-90980000D01*
X56857000Y-93774000D02*
X58635000Y-90980000D01*
X57365000Y-93520000D02*
X56857000Y-93774000D01*
X56603000Y-94155000D02*
X57365000Y-93520000D01*
X56730000Y-93139000D02*
X56603000Y-94155000D01*
X56984000Y-91234000D02*
X58254000Y-91234000D01*
X58381000Y-89329000D02*
X56984000Y-91234000D01*
D15*
X49110000Y-96060000D02*
X58000000Y-84630000D01*
X66890000Y-96060000D02*
X49110000Y-96060000D01*
X58000000Y-84630000D02*
X66890000Y-96060000D01*
D16*
X47800000Y-95000000D02*
G75*
G03X47800000Y-95000000I-2800000J0D01*
G01*
X101800000Y-95000000D02*
G75*
G03X101800000Y-95000000I-2800000J0D01*
G01*
X94050000Y-39000000D02*
G75*
G03X94050000Y-39000000I-2800000J0D01*
G01*
D17*
X77280000Y-83010000D02*
X77720000Y-83010000D01*
X77280000Y-81990000D02*
X77720000Y-81990000D01*
X79550000Y-79700000D02*
X79550000Y-80300000D01*
X76100000Y-79000000D02*
X78900000Y-79000000D01*
X75450000Y-80300000D02*
X75450000Y-79700000D01*
X78900000Y-81000000D02*
X76100000Y-81000000D01*
X76150000Y-81000000D02*
G75*
G02X75450000Y-80300000I0J700000D01*
G01*
X75450000Y-79700000D02*
G75*
G02X76150000Y-79000000I700000J0D01*
G01*
X78850000Y-79000000D02*
G75*
G02X79550000Y-79700000I0J-700000D01*
G01*
X79550000Y-80300000D02*
G75*
G02X78850000Y-81000000I-700000J0D01*
G01*
X83750000Y-56500000D02*
X82250000Y-56500000D01*
X83750000Y-58000000D02*
X83750000Y-56500000D01*
X77190000Y-65850000D02*
X77190000Y-67120000D01*
X77190000Y-67120000D02*
X78460000Y-67120000D01*
X78460000Y-59500000D02*
X77190000Y-59500000D01*
X77190000Y-59500000D02*
X77190000Y-60770000D01*
X77190000Y-60770000D02*
X75920000Y-60770000D01*
X75920000Y-60770000D02*
X75920000Y-65850000D01*
X75920000Y-65850000D02*
X78460000Y-65850000D01*
X78460000Y-65850000D02*
X78460000Y-60770000D01*
X78460000Y-60770000D02*
X77190000Y-60770000D01*
X83550000Y-69800000D02*
X83550000Y-56700000D01*
X54150000Y-69800000D02*
X83550000Y-69800000D01*
X54150000Y-56700000D02*
X54150000Y-69800000D01*
X83550000Y-56700000D02*
X54150000Y-56700000D01*
D13*
X78460000Y-62040000D02*
X75920000Y-63310000D01*
D17*
X89420000Y-62260000D02*
X90350000Y-62260000D01*
X92580000Y-62260000D02*
X91650000Y-62260000D01*
X92580000Y-62260000D02*
X92580000Y-59100000D01*
X89420000Y-62260000D02*
X89420000Y-60800000D01*
X91220000Y-58010000D02*
X90780000Y-58010000D01*
X91220000Y-56990000D02*
X90780000Y-56990000D01*
D13*
X95410000Y-70800000D02*
X95410000Y-96200000D01*
X67710000Y-70670000D02*
X101910000Y-70670000D01*
X67710000Y-96270000D02*
X67710000Y-70670000D01*
X101910000Y-96270000D02*
X67710000Y-96270000D01*
X101910000Y-70670000D02*
X101910000Y-96270000D01*
D16*
X68925000Y-73425000D02*
X68925000Y-73475000D01*
X73075000Y-73425000D02*
X73075000Y-73570000D01*
X73075000Y-78575000D02*
X73075000Y-78430000D01*
X68925000Y-78575000D02*
X68925000Y-78430000D01*
X68925000Y-73425000D02*
X73075000Y-73425000D01*
X68925000Y-78575000D02*
X73075000Y-78575000D01*
X68925000Y-73475000D02*
X67525000Y-73475000D01*
D17*
X78780000Y-74990000D02*
X79220000Y-74990000D01*
X78780000Y-76010000D02*
X79220000Y-76010000D01*
X80720000Y-76740000D02*
X80280000Y-76740000D01*
X80720000Y-77760000D02*
X80280000Y-77760000D01*
X95970000Y-70430000D02*
X105330000Y-70430000D01*
X105330000Y-70430000D02*
X105330000Y-53640000D01*
X105330000Y-53640000D02*
X95970000Y-53640000D01*
X95970000Y-70430000D02*
X95970000Y-68800000D01*
X95970000Y-53640000D02*
X95970000Y-55270000D01*
X95970000Y-66700000D02*
X95970000Y-64990000D01*
X95970000Y-62890000D02*
X95970000Y-61180000D01*
X95970000Y-59080000D02*
X95970000Y-57370000D01*
X102050000Y-70430000D02*
X102050000Y-53640000D01*
X94650000Y-67450000D02*
X95250000Y-67750000D01*
X95250000Y-67750000D02*
X94650000Y-68050000D01*
X94650000Y-68050000D02*
X94650000Y-67450000D01*
X94650000Y-50300000D02*
X94650000Y-49700000D01*
X95250000Y-50000000D02*
X94650000Y-50300000D01*
X94650000Y-49700000D02*
X95250000Y-50000000D01*
X102050000Y-52680000D02*
X102050000Y-35890000D01*
X95970000Y-41330000D02*
X95970000Y-39620000D01*
X95970000Y-45140000D02*
X95970000Y-43430000D01*
X95970000Y-48950000D02*
X95970000Y-47240000D01*
X95970000Y-35890000D02*
X95970000Y-37520000D01*
X95970000Y-52680000D02*
X95970000Y-51050000D01*
X105330000Y-35890000D02*
X95970000Y-35890000D01*
X105330000Y-52680000D02*
X105330000Y-35890000D01*
X95970000Y-52680000D02*
X105330000Y-52680000D01*
X95970000Y-90180000D02*
X105330000Y-90180000D01*
X105330000Y-90180000D02*
X105330000Y-77200000D01*
X105330000Y-77200000D02*
X95970000Y-77200000D01*
X95970000Y-90180000D02*
X95970000Y-88550000D01*
X95970000Y-77200000D02*
X95970000Y-78830000D01*
X95970000Y-86450000D02*
X95970000Y-84740000D01*
X95970000Y-82640000D02*
X95970000Y-80930000D01*
X102050000Y-90180000D02*
X102050000Y-77200000D01*
X94650000Y-87200000D02*
X95250000Y-87500000D01*
X95250000Y-87500000D02*
X94650000Y-87800000D01*
X94650000Y-87800000D02*
X94650000Y-87200000D01*
X51080000Y-39920000D02*
X38920000Y-39920000D01*
X38920000Y-39920000D02*
X38920000Y-52080000D01*
X38920000Y-52080000D02*
X51080000Y-52080000D01*
X51080000Y-52080000D02*
X51080000Y-39920000D01*
X40420000Y-39920000D02*
X42220000Y-39920000D01*
X42220000Y-39920000D02*
X42220000Y-52080000D01*
X42220000Y-52080000D02*
X40420000Y-52080000D01*
X40420000Y-52080000D02*
X40420000Y-39920000D01*
X38920000Y-42500000D02*
X38920000Y-44500000D01*
X38920000Y-44500000D02*
X40420000Y-44250000D01*
X40420000Y-44250000D02*
X40420000Y-42750000D01*
X40420000Y-42750000D02*
X38920000Y-42500000D01*
X38920000Y-47500000D02*
X38920000Y-49500000D01*
X38920000Y-49500000D02*
X40420000Y-49250000D01*
X40420000Y-49250000D02*
X40420000Y-47750000D01*
X40420000Y-47750000D02*
X38920000Y-47500000D01*
X51880000Y-43800000D02*
X51280000Y-43500000D01*
X51280000Y-43500000D02*
X51880000Y-43200000D01*
X51880000Y-43200000D02*
X51880000Y-43800000D01*
X51880000Y-79200000D02*
X51880000Y-79800000D01*
X51280000Y-79500000D02*
X51880000Y-79200000D01*
X51880000Y-79800000D02*
X51280000Y-79500000D01*
X40420000Y-83750000D02*
X38920000Y-83500000D01*
X40420000Y-85250000D02*
X40420000Y-83750000D01*
X38920000Y-85500000D02*
X40420000Y-85250000D01*
X38920000Y-83500000D02*
X38920000Y-85500000D01*
X40420000Y-78750000D02*
X38920000Y-78500000D01*
X40420000Y-80250000D02*
X40420000Y-78750000D01*
X38920000Y-80500000D02*
X40420000Y-80250000D01*
X38920000Y-78500000D02*
X38920000Y-80500000D01*
X40420000Y-88080000D02*
X40420000Y-75920000D01*
X42220000Y-88080000D02*
X40420000Y-88080000D01*
X42220000Y-75920000D02*
X42220000Y-88080000D01*
X40420000Y-75920000D02*
X42220000Y-75920000D01*
X51080000Y-88080000D02*
X51080000Y-75920000D01*
X38920000Y-88080000D02*
X51080000Y-88080000D01*
X38920000Y-75920000D02*
X38920000Y-88080000D01*
X51080000Y-75920000D02*
X38920000Y-75920000D01*
X84600000Y-67900000D02*
X87900000Y-67900000D01*
X87900000Y-67900000D02*
X87900000Y-61000000D01*
X84600000Y-67900000D02*
X84600000Y-61000000D01*
D16*
X89452380Y-47214285D02*
X88452380Y-47214285D01*
X88452380Y-46833333D01*
X88500000Y-46738095D01*
X88547619Y-46690476D01*
X88642857Y-46642857D01*
X88785714Y-46642857D01*
X88880952Y-46690476D01*
X88928571Y-46738095D01*
X88976190Y-46833333D01*
X88976190Y-47214285D01*
X89404761Y-46261904D02*
X89452380Y-46119047D01*
X89452380Y-45880952D01*
X89404761Y-45785714D01*
X89357142Y-45738095D01*
X89261904Y-45690476D01*
X89166666Y-45690476D01*
X89071428Y-45738095D01*
X89023809Y-45785714D01*
X88976190Y-45880952D01*
X88928571Y-46071428D01*
X88880952Y-46166666D01*
X88833333Y-46214285D01*
X88738095Y-46261904D01*
X88642857Y-46261904D01*
X88547619Y-46214285D01*
X88500000Y-46166666D01*
X88452380Y-46071428D01*
X88452380Y-45833333D01*
X88500000Y-45690476D01*
X89452380Y-44738095D02*
X89452380Y-45309523D01*
X89452380Y-45023809D02*
X88452380Y-45023809D01*
X88595238Y-45119047D01*
X88690476Y-45214285D01*
X88738095Y-45309523D01*
X77333333Y-84607142D02*
X77285714Y-84654761D01*
X77142857Y-84702380D01*
X77047619Y-84702380D01*
X76904761Y-84654761D01*
X76809523Y-84559523D01*
X76761904Y-84464285D01*
X76714285Y-84273809D01*
X76714285Y-84130952D01*
X76761904Y-83940476D01*
X76809523Y-83845238D01*
X76904761Y-83750000D01*
X77047619Y-83702380D01*
X77142857Y-83702380D01*
X77285714Y-83750000D01*
X77333333Y-83797619D01*
X78285714Y-84702380D02*
X77714285Y-84702380D01*
X78000000Y-84702380D02*
X78000000Y-83702380D01*
X77904761Y-83845238D01*
X77809523Y-83940476D01*
X77714285Y-83988095D01*
X75916666Y-77452380D02*
X75916666Y-78166666D01*
X75869047Y-78309523D01*
X75773809Y-78404761D01*
X75630952Y-78452380D01*
X75535714Y-78452380D01*
X76392857Y-78452380D02*
X76392857Y-77452380D01*
X76773809Y-77452380D01*
X76869047Y-77500000D01*
X76916666Y-77547619D01*
X76964285Y-77642857D01*
X76964285Y-77785714D01*
X76916666Y-77880952D01*
X76869047Y-77928571D01*
X76773809Y-77976190D01*
X76392857Y-77976190D01*
X77916666Y-78452380D02*
X77345238Y-78452380D01*
X77630952Y-78452380D02*
X77630952Y-77452380D01*
X77535714Y-77595238D01*
X77440476Y-77690476D01*
X77345238Y-77738095D01*
X74566666Y-79452380D02*
X75185714Y-79452380D01*
X74852380Y-79833333D01*
X74995238Y-79833333D01*
X75090476Y-79880952D01*
X75138095Y-79928571D01*
X75185714Y-80023809D01*
X75185714Y-80261904D01*
X75138095Y-80357142D01*
X75090476Y-80404761D01*
X74995238Y-80452380D01*
X74709523Y-80452380D01*
X74614285Y-80404761D01*
X74566666Y-80357142D01*
X80385714Y-80452380D02*
X79814285Y-80452380D01*
X80100000Y-80452380D02*
X80100000Y-79452380D01*
X80004761Y-79595238D01*
X79909523Y-79690476D01*
X79814285Y-79738095D01*
X53702380Y-58488095D02*
X52702380Y-58488095D01*
X53702380Y-57916666D02*
X53130952Y-58345238D01*
X52702380Y-57916666D02*
X53273809Y-58488095D01*
X53702380Y-56964285D02*
X53702380Y-57535714D01*
X53702380Y-57250000D02*
X52702380Y-57250000D01*
X52845238Y-57345238D01*
X52940476Y-57440476D01*
X52988095Y-57535714D01*
X89404761Y-64547619D02*
X89309523Y-64500000D01*
X89214285Y-64404761D01*
X89071428Y-64261904D01*
X88976190Y-64214285D01*
X88880952Y-64214285D01*
X88928571Y-64452380D02*
X88833333Y-64404761D01*
X88738095Y-64309523D01*
X88690476Y-64119047D01*
X88690476Y-63785714D01*
X88738095Y-63595238D01*
X88833333Y-63500000D01*
X88928571Y-63452380D01*
X89119047Y-63452380D01*
X89214285Y-63500000D01*
X89309523Y-63595238D01*
X89357142Y-63785714D01*
X89357142Y-64119047D01*
X89309523Y-64309523D01*
X89214285Y-64404761D01*
X89119047Y-64452380D01*
X88928571Y-64452380D01*
X90309523Y-64452380D02*
X89738095Y-64452380D01*
X90023809Y-64452380D02*
X90023809Y-63452380D01*
X89928571Y-63595238D01*
X89833333Y-63690476D01*
X89738095Y-63738095D01*
X90833333Y-56452380D02*
X90500000Y-55976190D01*
X90261904Y-56452380D02*
X90261904Y-55452380D01*
X90642857Y-55452380D01*
X90738095Y-55500000D01*
X90785714Y-55547619D01*
X90833333Y-55642857D01*
X90833333Y-55785714D01*
X90785714Y-55880952D01*
X90738095Y-55928571D01*
X90642857Y-55976190D01*
X90261904Y-55976190D01*
X91785714Y-56452380D02*
X91214285Y-56452380D01*
X91500000Y-56452380D02*
X91500000Y-55452380D01*
X91404761Y-55595238D01*
X91309523Y-55690476D01*
X91214285Y-55738095D01*
X66202380Y-95761904D02*
X67011904Y-95761904D01*
X67107142Y-95714285D01*
X67154761Y-95666666D01*
X67202380Y-95571428D01*
X67202380Y-95380952D01*
X67154761Y-95285714D01*
X67107142Y-95238095D01*
X67011904Y-95190476D01*
X66202380Y-95190476D01*
X67202380Y-94190476D02*
X67202380Y-94761904D01*
X67202380Y-94476190D02*
X66202380Y-94476190D01*
X66345238Y-94571428D01*
X66440476Y-94666666D01*
X66488095Y-94761904D01*
X67988095Y-79202380D02*
X67988095Y-80011904D01*
X68035714Y-80107142D01*
X68083333Y-80154761D01*
X68178571Y-80202380D01*
X68369047Y-80202380D01*
X68464285Y-80154761D01*
X68511904Y-80107142D01*
X68559523Y-80011904D01*
X68559523Y-79202380D01*
X68988095Y-79297619D02*
X69035714Y-79250000D01*
X69130952Y-79202380D01*
X69369047Y-79202380D01*
X69464285Y-79250000D01*
X69511904Y-79297619D01*
X69559523Y-79392857D01*
X69559523Y-79488095D01*
X69511904Y-79630952D01*
X68940476Y-80202380D01*
X69559523Y-80202380D01*
X78833333Y-74452380D02*
X78500000Y-73976190D01*
X78261904Y-74452380D02*
X78261904Y-73452380D01*
X78642857Y-73452380D01*
X78738095Y-73500000D01*
X78785714Y-73547619D01*
X78833333Y-73642857D01*
X78833333Y-73785714D01*
X78785714Y-73880952D01*
X78738095Y-73928571D01*
X78642857Y-73976190D01*
X78261904Y-73976190D01*
X79214285Y-73547619D02*
X79261904Y-73500000D01*
X79357142Y-73452380D01*
X79595238Y-73452380D01*
X79690476Y-73500000D01*
X79738095Y-73547619D01*
X79785714Y-73642857D01*
X79785714Y-73738095D01*
X79738095Y-73880952D01*
X79166666Y-74452380D01*
X79785714Y-74452380D01*
X83702380Y-77416666D02*
X83226190Y-77750000D01*
X83702380Y-77988095D02*
X82702380Y-77988095D01*
X82702380Y-77607142D01*
X82750000Y-77511904D01*
X82797619Y-77464285D01*
X82892857Y-77416666D01*
X83035714Y-77416666D01*
X83130952Y-77464285D01*
X83178571Y-77511904D01*
X83226190Y-77607142D01*
X83226190Y-77988095D01*
X82702380Y-77083333D02*
X82702380Y-76464285D01*
X83083333Y-76797619D01*
X83083333Y-76654761D01*
X83130952Y-76559523D01*
X83178571Y-76511904D01*
X83273809Y-76464285D01*
X83511904Y-76464285D01*
X83607142Y-76511904D01*
X83654761Y-76559523D01*
X83702380Y-76654761D01*
X83702380Y-76940476D01*
X83654761Y-77035714D01*
X83607142Y-77083333D01*
X94652380Y-62368333D02*
X95366666Y-62368333D01*
X95509523Y-62415952D01*
X95604761Y-62511190D01*
X95652380Y-62654047D01*
X95652380Y-62749285D01*
X94652380Y-61987380D02*
X94652380Y-61368333D01*
X95033333Y-61701666D01*
X95033333Y-61558809D01*
X95080952Y-61463571D01*
X95128571Y-61415952D01*
X95223809Y-61368333D01*
X95461904Y-61368333D01*
X95557142Y-61415952D01*
X95604761Y-61463571D01*
X95652380Y-61558809D01*
X95652380Y-61844523D01*
X95604761Y-61939761D01*
X95557142Y-61987380D01*
X94202380Y-68607142D02*
X93726190Y-68940476D01*
X94202380Y-69178571D02*
X93202380Y-69178571D01*
X93202380Y-68797619D01*
X93250000Y-68702380D01*
X93297619Y-68654761D01*
X93392857Y-68607142D01*
X93535714Y-68607142D01*
X93630952Y-68654761D01*
X93678571Y-68702380D01*
X93726190Y-68797619D01*
X93726190Y-69178571D01*
X93678571Y-67845238D02*
X93678571Y-68178571D01*
X94202380Y-68178571D02*
X93202380Y-68178571D01*
X93202380Y-67702380D01*
X94202380Y-67321428D02*
X93202380Y-67321428D01*
X94202380Y-66845238D02*
X93202380Y-66845238D01*
X93202380Y-66607142D01*
X93250000Y-66464285D01*
X93345238Y-66369047D01*
X93440476Y-66321428D01*
X93630952Y-66273809D01*
X93773809Y-66273809D01*
X93964285Y-66321428D01*
X94059523Y-66369047D01*
X94154761Y-66464285D01*
X94202380Y-66607142D01*
X94202380Y-66845238D01*
X94202380Y-44583333D02*
X94916666Y-44583333D01*
X95059523Y-44630952D01*
X95154761Y-44726190D01*
X95202380Y-44869047D01*
X95202380Y-44964285D01*
X94535714Y-43678571D02*
X95202380Y-43678571D01*
X94154761Y-43916666D02*
X94869047Y-44154761D01*
X94869047Y-43535714D01*
X93202380Y-51452380D02*
X93202380Y-51261904D01*
X93250000Y-51166666D01*
X93345238Y-51071428D01*
X93535714Y-51023809D01*
X93869047Y-51023809D01*
X94059523Y-51071428D01*
X94154761Y-51166666D01*
X94202380Y-51261904D01*
X94202380Y-51452380D01*
X94154761Y-51547619D01*
X94059523Y-51642857D01*
X93869047Y-51690476D01*
X93535714Y-51690476D01*
X93345238Y-51642857D01*
X93250000Y-51547619D01*
X93202380Y-51452380D01*
X94202380Y-50119047D02*
X94202380Y-50595238D01*
X93202380Y-50595238D01*
X93678571Y-49785714D02*
X93678571Y-49452380D01*
X94202380Y-49309523D02*
X94202380Y-49785714D01*
X93202380Y-49785714D01*
X93202380Y-49309523D01*
X94202380Y-48880952D02*
X93202380Y-48880952D01*
X93202380Y-48642857D01*
X93250000Y-48500000D01*
X93345238Y-48404761D01*
X93440476Y-48357142D01*
X93630952Y-48309523D01*
X93773809Y-48309523D01*
X93964285Y-48357142D01*
X94059523Y-48404761D01*
X94154761Y-48500000D01*
X94202380Y-48642857D01*
X94202380Y-48880952D01*
X96416666Y-75952380D02*
X96416666Y-76666666D01*
X96369047Y-76809523D01*
X96273809Y-76904761D01*
X96130952Y-76952380D01*
X96035714Y-76952380D01*
X97369047Y-75952380D02*
X96892857Y-75952380D01*
X96845238Y-76428571D01*
X96892857Y-76380952D01*
X96988095Y-76333333D01*
X97226190Y-76333333D01*
X97321428Y-76380952D01*
X97369047Y-76428571D01*
X97416666Y-76523809D01*
X97416666Y-76761904D01*
X97369047Y-76857142D01*
X97321428Y-76904761D01*
X97226190Y-76952380D01*
X96988095Y-76952380D01*
X96892857Y-76904761D01*
X96845238Y-76857142D01*
X92952380Y-90309523D02*
X93952380Y-90071428D01*
X93238095Y-89880952D01*
X93952380Y-89690476D01*
X92952380Y-89452380D01*
X93904761Y-89119047D02*
X93952380Y-88976190D01*
X93952380Y-88738095D01*
X93904761Y-88642857D01*
X93857142Y-88595238D01*
X93761904Y-88547619D01*
X93666666Y-88547619D01*
X93571428Y-88595238D01*
X93523809Y-88642857D01*
X93476190Y-88738095D01*
X93428571Y-88928571D01*
X93380952Y-89023809D01*
X93333333Y-89071428D01*
X93238095Y-89119047D01*
X93142857Y-89119047D01*
X93047619Y-89071428D01*
X93000000Y-89023809D01*
X92952380Y-88928571D01*
X92952380Y-88690476D01*
X93000000Y-88547619D01*
X93047619Y-88166666D02*
X93000000Y-88119047D01*
X92952380Y-88023809D01*
X92952380Y-87785714D01*
X93000000Y-87690476D01*
X93047619Y-87642857D01*
X93142857Y-87595238D01*
X93238095Y-87595238D01*
X93380952Y-87642857D01*
X93952380Y-88214285D01*
X93952380Y-87595238D01*
X93380952Y-87023809D02*
X93333333Y-87119047D01*
X93285714Y-87166666D01*
X93190476Y-87214285D01*
X93142857Y-87214285D01*
X93047619Y-87166666D01*
X93000000Y-87119047D01*
X92952380Y-87023809D01*
X92952380Y-86833333D01*
X93000000Y-86738095D01*
X93047619Y-86690476D01*
X93142857Y-86642857D01*
X93190476Y-86642857D01*
X93285714Y-86690476D01*
X93333333Y-86738095D01*
X93380952Y-86833333D01*
X93380952Y-87023809D01*
X93428571Y-87119047D01*
X93476190Y-87166666D01*
X93571428Y-87214285D01*
X93761904Y-87214285D01*
X93857142Y-87166666D01*
X93904761Y-87119047D01*
X93952380Y-87023809D01*
X93952380Y-86833333D01*
X93904761Y-86738095D01*
X93857142Y-86690476D01*
X93761904Y-86642857D01*
X93571428Y-86642857D01*
X93476190Y-86690476D01*
X93428571Y-86738095D01*
X93380952Y-86833333D01*
X93952380Y-85690476D02*
X93952380Y-86261904D01*
X93952380Y-85976190D02*
X92952380Y-85976190D01*
X93095238Y-86071428D01*
X93190476Y-86166666D01*
X93238095Y-86261904D01*
X93047619Y-85309523D02*
X93000000Y-85261904D01*
X92952380Y-85166666D01*
X92952380Y-84928571D01*
X93000000Y-84833333D01*
X93047619Y-84785714D01*
X93142857Y-84738095D01*
X93238095Y-84738095D01*
X93380952Y-84785714D01*
X93952380Y-85357142D01*
X93952380Y-84738095D01*
X44416666Y-38702380D02*
X44416666Y-39416666D01*
X44369047Y-39559523D01*
X44273809Y-39654761D01*
X44130952Y-39702380D01*
X44035714Y-39702380D01*
X45416666Y-39702380D02*
X44845238Y-39702380D01*
X45130952Y-39702380D02*
X45130952Y-38702380D01*
X45035714Y-38845238D01*
X44940476Y-38940476D01*
X44845238Y-38988095D01*
X42761904Y-52797619D02*
X42809523Y-52750000D01*
X42904761Y-52702380D01*
X43142857Y-52702380D01*
X43238095Y-52750000D01*
X43285714Y-52797619D01*
X43333333Y-52892857D01*
X43333333Y-52988095D01*
X43285714Y-53130952D01*
X42714285Y-53702380D01*
X43333333Y-53702380D01*
X43666666Y-52702380D02*
X44285714Y-52702380D01*
X43952380Y-53083333D01*
X44095238Y-53083333D01*
X44190476Y-53130952D01*
X44238095Y-53178571D01*
X44285714Y-53273809D01*
X44285714Y-53511904D01*
X44238095Y-53607142D01*
X44190476Y-53654761D01*
X44095238Y-53702380D01*
X43809523Y-53702380D01*
X43714285Y-53654761D01*
X43666666Y-53607142D01*
X44904761Y-52702380D02*
X44999999Y-52702380D01*
X45095238Y-52750000D01*
X45142857Y-52797619D01*
X45190476Y-52892857D01*
X45238095Y-53083333D01*
X45238095Y-53321428D01*
X45190476Y-53511904D01*
X45142857Y-53607142D01*
X45095238Y-53654761D01*
X44999999Y-53702380D01*
X44904761Y-53702380D01*
X44809523Y-53654761D01*
X44761904Y-53607142D01*
X44714285Y-53511904D01*
X44666666Y-53321428D01*
X44666666Y-53083333D01*
X44714285Y-52892857D01*
X44761904Y-52797619D01*
X44809523Y-52750000D01*
X44904761Y-52702380D01*
X45523809Y-52702380D02*
X45857142Y-53702380D01*
X46190476Y-52702380D01*
X47238095Y-53416666D02*
X47714285Y-53416666D01*
X47142857Y-53702380D02*
X47476190Y-52702380D01*
X47809523Y-53702380D01*
X48714285Y-53607142D02*
X48666666Y-53654761D01*
X48523809Y-53702380D01*
X48428571Y-53702380D01*
X48285714Y-53654761D01*
X48190476Y-53559523D01*
X48142857Y-53464285D01*
X48095238Y-53273809D01*
X48095238Y-53130952D01*
X48142857Y-52940476D01*
X48190476Y-52845238D01*
X48285714Y-52750000D01*
X48428571Y-52702380D01*
X48523809Y-52702380D01*
X48666666Y-52750000D01*
X48714285Y-52797619D01*
X49904761Y-53702380D02*
X49904761Y-52702380D01*
X50380952Y-53035714D02*
X50380952Y-53702380D01*
X50380952Y-53130952D02*
X50428571Y-53083333D01*
X50523809Y-53035714D01*
X50666666Y-53035714D01*
X50761904Y-53083333D01*
X50809523Y-53178571D01*
X50809523Y-53702380D01*
X51285714Y-53035714D02*
X51285714Y-54035714D01*
X51285714Y-53083333D02*
X51380952Y-53035714D01*
X51571428Y-53035714D01*
X51666666Y-53083333D01*
X51714285Y-53130952D01*
X51761904Y-53226190D01*
X51761904Y-53511904D01*
X51714285Y-53607142D01*
X51666666Y-53654761D01*
X51571428Y-53702380D01*
X51380952Y-53702380D01*
X51285714Y-53654761D01*
X52619047Y-53035714D02*
X52619047Y-53702380D01*
X52190476Y-53035714D02*
X52190476Y-53559523D01*
X52238095Y-53654761D01*
X52333333Y-53702380D01*
X52476190Y-53702380D01*
X52571428Y-53654761D01*
X52619047Y-53607142D01*
X52952380Y-53035714D02*
X53333333Y-53035714D01*
X53095238Y-52702380D02*
X53095238Y-53559523D01*
X53142857Y-53654761D01*
X53238095Y-53702380D01*
X53333333Y-53702380D01*
X43416666Y-88452380D02*
X43416666Y-89166666D01*
X43369047Y-89309523D01*
X43273809Y-89404761D01*
X43130952Y-89452380D01*
X43035714Y-89452380D01*
X43845238Y-88547619D02*
X43892857Y-88500000D01*
X43988095Y-88452380D01*
X44226190Y-88452380D01*
X44321428Y-88500000D01*
X44369047Y-88547619D01*
X44416666Y-88642857D01*
X44416666Y-88738095D01*
X44369047Y-88880952D01*
X43797619Y-89452380D01*
X44416666Y-89452380D01*
X42690476Y-74547619D02*
X42738095Y-74500000D01*
X42833333Y-74452380D01*
X43071428Y-74452380D01*
X43166666Y-74500000D01*
X43214285Y-74547619D01*
X43261904Y-74642857D01*
X43261904Y-74738095D01*
X43214285Y-74880952D01*
X42642857Y-75452380D01*
X43261904Y-75452380D01*
X43595238Y-74452380D02*
X44214285Y-74452380D01*
X43880952Y-74833333D01*
X44023809Y-74833333D01*
X44119047Y-74880952D01*
X44166666Y-74928571D01*
X44214285Y-75023809D01*
X44214285Y-75261904D01*
X44166666Y-75357142D01*
X44119047Y-75404761D01*
X44023809Y-75452380D01*
X43738095Y-75452380D01*
X43642857Y-75404761D01*
X43595238Y-75357142D01*
X44833333Y-74452380D02*
X44928571Y-74452380D01*
X45023809Y-74500000D01*
X45071428Y-74547619D01*
X45119047Y-74642857D01*
X45166666Y-74833333D01*
X45166666Y-75071428D01*
X45119047Y-75261904D01*
X45071428Y-75357142D01*
X45023809Y-75404761D01*
X44928571Y-75452380D01*
X44833333Y-75452380D01*
X44738095Y-75404761D01*
X44690476Y-75357142D01*
X44642857Y-75261904D01*
X44595238Y-75071428D01*
X44595238Y-74833333D01*
X44642857Y-74642857D01*
X44690476Y-74547619D01*
X44738095Y-74500000D01*
X44833333Y-74452380D01*
X45452380Y-74452380D02*
X45785714Y-75452380D01*
X46119047Y-74452380D01*
X47166666Y-75166666D02*
X47642857Y-75166666D01*
X47071428Y-75452380D02*
X47404761Y-74452380D01*
X47738095Y-75452380D01*
X48642857Y-75357142D02*
X48595238Y-75404761D01*
X48452380Y-75452380D01*
X48357142Y-75452380D01*
X48214285Y-75404761D01*
X48119047Y-75309523D01*
X48071428Y-75214285D01*
X48023809Y-75023809D01*
X48023809Y-74880952D01*
X48071428Y-74690476D01*
X48119047Y-74595238D01*
X48214285Y-74500000D01*
X48357142Y-74452380D01*
X48452380Y-74452380D01*
X48595238Y-74500000D01*
X48642857Y-74547619D01*
X50023809Y-74452380D02*
X50214285Y-74452380D01*
X50309523Y-74500000D01*
X50404761Y-74595238D01*
X50452380Y-74785714D01*
X50452380Y-75119047D01*
X50404761Y-75309523D01*
X50309523Y-75404761D01*
X50214285Y-75452380D01*
X50023809Y-75452380D01*
X49928571Y-75404761D01*
X49833333Y-75309523D01*
X49785714Y-75119047D01*
X49785714Y-74785714D01*
X49833333Y-74595238D01*
X49928571Y-74500000D01*
X50023809Y-74452380D01*
X51309523Y-74785714D02*
X51309523Y-75452380D01*
X50880952Y-74785714D02*
X50880952Y-75309523D01*
X50928571Y-75404761D01*
X51023809Y-75452380D01*
X51166666Y-75452380D01*
X51261904Y-75404761D01*
X51309523Y-75357142D01*
X51642857Y-74785714D02*
X52023809Y-74785714D01*
X51785714Y-74452380D02*
X51785714Y-75309523D01*
X51833333Y-75404761D01*
X51928571Y-75452380D01*
X52023809Y-75452380D01*
X52357142Y-74785714D02*
X52357142Y-75785714D01*
X52357142Y-74833333D02*
X52452380Y-74785714D01*
X52642857Y-74785714D01*
X52738095Y-74833333D01*
X52785714Y-74880952D01*
X52833333Y-74976190D01*
X52833333Y-75261904D01*
X52785714Y-75357142D01*
X52738095Y-75404761D01*
X52642857Y-75452380D01*
X52452380Y-75452380D01*
X52357142Y-75404761D01*
X53690476Y-74785714D02*
X53690476Y-75452380D01*
X53261904Y-74785714D02*
X53261904Y-75309523D01*
X53309523Y-75404761D01*
X53404761Y-75452380D01*
X53547619Y-75452380D01*
X53642857Y-75404761D01*
X53690476Y-75357142D01*
X54023809Y-74785714D02*
X54404761Y-74785714D01*
X54166666Y-74452380D02*
X54166666Y-75309523D01*
X54214285Y-75404761D01*
X54309523Y-75452380D01*
X54404761Y-75452380D01*
X84202380Y-64238095D02*
X83202380Y-64238095D01*
X83202380Y-64000000D01*
X83250000Y-63857142D01*
X83345238Y-63761904D01*
X83440476Y-63714285D01*
X83630952Y-63666666D01*
X83773809Y-63666666D01*
X83964285Y-63714285D01*
X84059523Y-63761904D01*
X84154761Y-63857142D01*
X84202380Y-64000000D01*
X84202380Y-64238095D01*
X84202380Y-62714285D02*
X84202380Y-63285714D01*
X84202380Y-63000000D02*
X83202380Y-63000000D01*
X83345238Y-63095238D01*
X83440476Y-63190476D01*
X83488095Y-63285714D01*
M02*
