G04 #@! TF.GenerationSoftware,KiCad,Pcbnew,5.0-dev-unknown-9241a39~61~ubuntu17.10.1*
G04 #@! TF.CreationDate,2018-04-12T19:06:24+02:00*
G04 #@! TF.ProjectId,power_monitor,706F7765725F6D6F6E69746F722E6B69,rev?*
G04 #@! TF.SameCoordinates,Original*
G04 #@! TF.FileFunction,Soldermask,Bot*
G04 #@! TF.FilePolarity,Negative*
%FSLAX46Y46*%
G04 Gerber Fmt 4.6, Leading zero omitted, Abs format (unit mm)*
G04 Created by KiCad (PCBNEW 5.0-dev-unknown-9241a39~61~ubuntu17.10.1) date Thu Apr 12 19:06:24 2018*
%MOMM*%
%LPD*%
G01*
G04 APERTURE LIST*
%ADD10C,2.400000*%
%ADD11C,3.600000*%
%ADD12R,3.400000X2.400000*%
%ADD13O,3.400000X2.400000*%
%ADD14O,2.400000X3.400000*%
%ADD15C,2.000000*%
%ADD16R,4.000000X2.200000*%
%ADD17O,4.000000X2.200000*%
%ADD18R,4.000000X2.400000*%
%ADD19O,4.000000X2.400000*%
G04 APERTURE END LIST*
D10*
X56300000Y-43500000D03*
X56300000Y-48500000D03*
X85700000Y-38300000D03*
X85700000Y-53700000D03*
D11*
X45000000Y-95000000D03*
X99000000Y-95000000D03*
X91250000Y-39000000D03*
D12*
X81000000Y-59500000D03*
D13*
X81000000Y-67000000D03*
D14*
X60700000Y-59500000D03*
X55660000Y-67000000D03*
X60700000Y-67000000D03*
X55660000Y-59500000D03*
D15*
X94140000Y-94930000D03*
X91600000Y-94930000D03*
X89060000Y-94930000D03*
X86520000Y-94930000D03*
X83980000Y-94930000D03*
X81440000Y-94930000D03*
X78900000Y-94930000D03*
X76360000Y-94930000D03*
X76360000Y-72070000D03*
X78900000Y-72070000D03*
X81440000Y-72070000D03*
X83980000Y-72070000D03*
X86520000Y-72070000D03*
X89060000Y-72070000D03*
X91600000Y-72070000D03*
X94140000Y-72070000D03*
D16*
X97250000Y-67750000D03*
D17*
X97250000Y-63940000D03*
X97250000Y-60130000D03*
X97250000Y-56320000D03*
X97250000Y-38570000D03*
X97250000Y-42380000D03*
X97250000Y-46190000D03*
D16*
X97250000Y-50000000D03*
X97250000Y-87500000D03*
D17*
X97250000Y-83690000D03*
X97250000Y-79880000D03*
D18*
X49000000Y-43500000D03*
D19*
X49000000Y-48500000D03*
X49000000Y-84500000D03*
D18*
X49000000Y-79500000D03*
M02*
