G04 #@! TF.GenerationSoftware,KiCad,Pcbnew,5.0-dev-unknown-9241a39~61~ubuntu17.10.1*
G04 #@! TF.CreationDate,2018-04-12T19:06:24+02:00*
G04 #@! TF.ProjectId,power_monitor,706F7765725F6D6F6E69746F722E6B69,rev?*
G04 #@! TF.SameCoordinates,Original*
G04 #@! TF.FileFunction,Legend,Bot*
G04 #@! TF.FilePolarity,Positive*
%FSLAX46Y46*%
G04 Gerber Fmt 4.6, Leading zero omitted, Abs format (unit mm)*
G04 Created by KiCad (PCBNEW 5.0-dev-unknown-9241a39~61~ubuntu17.10.1) date Thu Apr 12 19:06:24 2018*
%MOMM*%
%LPD*%
G01*
G04 APERTURE LIST*
%ADD10C,0.200000*%
%ADD11C,0.300000*%
%ADD12C,1.270000*%
%ADD13C,0.381000*%
G04 APERTURE END LIST*
D10*
X69500000Y-49000000D02*
X69500000Y-46500000D01*
X69500000Y-54000000D02*
X69500000Y-51500000D01*
X69500000Y-39500000D02*
X69500000Y-37000000D01*
X69500000Y-59000000D02*
X69500000Y-56500000D01*
X69500000Y-92500000D02*
X69500000Y-90000000D01*
X69500000Y-78000000D02*
X69500000Y-75500000D01*
X69500000Y-68500000D02*
X69500000Y-66000000D01*
X69500000Y-44500000D02*
X69500000Y-42000000D01*
X69500000Y-83000000D02*
X69500000Y-80500000D01*
X69500000Y-97500000D02*
X69500000Y-95000000D01*
X69500000Y-88000000D02*
X69500000Y-85500000D01*
X69500000Y-63500000D02*
X69500000Y-61000000D01*
X69500000Y-73500000D02*
X69500000Y-71000000D01*
D11*
X53178571Y-49678571D02*
X53178571Y-48178571D01*
X52321428Y-49678571D01*
X52321428Y-48178571D01*
X47628571Y-52278571D02*
X47628571Y-50778571D01*
X46771428Y-52278571D01*
X46771428Y-50778571D01*
X52428571Y-79228571D02*
X52428571Y-77728571D01*
X51571428Y-79228571D01*
X51571428Y-77728571D01*
X51785714Y-85928571D02*
X52500000Y-85928571D01*
X52500000Y-84428571D01*
X52535714Y-42928571D02*
X53250000Y-42928571D01*
X53250000Y-41428571D01*
D12*
X58000000Y-84630000D02*
X49110000Y-96060000D01*
X49110000Y-96060000D02*
X66890000Y-96060000D01*
X66890000Y-96060000D02*
X58000000Y-84630000D01*
D13*
X57619000Y-89329000D02*
X59016000Y-91234000D01*
X59016000Y-91234000D02*
X57746000Y-91234000D01*
X59270000Y-93139000D02*
X59397000Y-94155000D01*
X59397000Y-94155000D02*
X58635000Y-93520000D01*
X58635000Y-93520000D02*
X59143000Y-93774000D01*
X59143000Y-93774000D02*
X57365000Y-90980000D01*
X57365000Y-90980000D02*
X58635000Y-90980000D01*
X58635000Y-90980000D02*
X56857000Y-88948000D01*
X56857000Y-88948000D02*
X57619000Y-89456000D01*
X57619000Y-89456000D02*
X57746000Y-88948000D01*
X57873000Y-89075000D02*
X59397000Y-91361000D01*
X59397000Y-91361000D02*
X58000000Y-91361000D01*
X58000000Y-91361000D02*
X59143000Y-93647000D01*
X59143000Y-93647000D02*
X59270000Y-93139000D01*
M02*
