G04 #@! TF.GenerationSoftware,KiCad,Pcbnew,5.0-dev-unknown-9241a39~61~ubuntu17.10.1*
G04 #@! TF.CreationDate,2018-04-12T19:06:24+02:00*
G04 #@! TF.ProjectId,power_monitor,706F7765725F6D6F6E69746F722E6B69,rev?*
G04 #@! TF.SameCoordinates,Original*
G04 #@! TF.FileFunction,Soldermask,Top*
G04 #@! TF.FilePolarity,Negative*
%FSLAX46Y46*%
G04 Gerber Fmt 4.6, Leading zero omitted, Abs format (unit mm)*
G04 Created by KiCad (PCBNEW 5.0-dev-unknown-9241a39~61~ubuntu17.10.1) date Thu Apr 12 19:06:24 2018*
%MOMM*%
%LPD*%
G01*
G04 APERTURE LIST*
%ADD10C,2.400000*%
%ADD11C,3.600000*%
%ADD12R,1.245000X1.400000*%
%ADD13C,0.100000*%
%ADD14C,1.400000*%
%ADD15R,0.900000X1.900000*%
%ADD16R,1.400000X1.900000*%
%ADD17R,0.900000X0.800000*%
%ADD18R,3.400000X2.400000*%
%ADD19O,3.400000X2.400000*%
%ADD20O,2.400000X3.400000*%
%ADD21R,1.200000X2.300000*%
%ADD22C,2.000000*%
%ADD23R,1.950000X1.000000*%
%ADD24R,4.000000X2.200000*%
%ADD25O,4.000000X2.200000*%
%ADD26R,4.000000X2.400000*%
%ADD27O,4.000000X2.400000*%
%ADD28R,2.200000X3.900000*%
G04 APERTURE END LIST*
D10*
X56300000Y-43500000D03*
X56300000Y-48500000D03*
X85700000Y-38300000D03*
X85700000Y-53700000D03*
D11*
X45000000Y-95000000D03*
X99000000Y-95000000D03*
X91250000Y-39000000D03*
D12*
X78462500Y-82500000D03*
X76537500Y-82500000D03*
D13*
G36*
X78868613Y-79053371D02*
X78936564Y-79063450D01*
X79003200Y-79080142D01*
X79067879Y-79103284D01*
X79129979Y-79132655D01*
X79188900Y-79167971D01*
X79244076Y-79208893D01*
X79294976Y-79255025D01*
X79341108Y-79305925D01*
X79382030Y-79361101D01*
X79417346Y-79420022D01*
X79446717Y-79482122D01*
X79469859Y-79546801D01*
X79486551Y-79613437D01*
X79496630Y-79681388D01*
X79500001Y-79750000D01*
X79500001Y-80250000D01*
X79496630Y-80318612D01*
X79486551Y-80386563D01*
X79469859Y-80453199D01*
X79446717Y-80517878D01*
X79417346Y-80579978D01*
X79382030Y-80638899D01*
X79341108Y-80694075D01*
X79294976Y-80744975D01*
X79244076Y-80791107D01*
X79188900Y-80832029D01*
X79129979Y-80867345D01*
X79067879Y-80896716D01*
X79003200Y-80919858D01*
X78936564Y-80936550D01*
X78868613Y-80946629D01*
X78800001Y-80950000D01*
X78799999Y-80950000D01*
X78731387Y-80946629D01*
X78663436Y-80936550D01*
X78596800Y-80919858D01*
X78532121Y-80896716D01*
X78470021Y-80867345D01*
X78411100Y-80832029D01*
X78355924Y-80791107D01*
X78305024Y-80744975D01*
X78258892Y-80694075D01*
X78217970Y-80638899D01*
X78182654Y-80579978D01*
X78153283Y-80517878D01*
X78130141Y-80453199D01*
X78113449Y-80386563D01*
X78103370Y-80318612D01*
X78099999Y-80250000D01*
X78099999Y-79750000D01*
X78103370Y-79681388D01*
X78113449Y-79613437D01*
X78130141Y-79546801D01*
X78153283Y-79482122D01*
X78182654Y-79420022D01*
X78217970Y-79361101D01*
X78258892Y-79305925D01*
X78305024Y-79255025D01*
X78355924Y-79208893D01*
X78411100Y-79167971D01*
X78470021Y-79132655D01*
X78532121Y-79103284D01*
X78596800Y-79080142D01*
X78663436Y-79063450D01*
X78731387Y-79053371D01*
X78799999Y-79050000D01*
X78800001Y-79050000D01*
X78868613Y-79053371D01*
X78868613Y-79053371D01*
G37*
D14*
X78800000Y-80000000D03*
D15*
X78500000Y-80000000D03*
D16*
X77500000Y-80000000D03*
D13*
G36*
X76268613Y-79053371D02*
X76336564Y-79063450D01*
X76403200Y-79080142D01*
X76467879Y-79103284D01*
X76529979Y-79132655D01*
X76588900Y-79167971D01*
X76644076Y-79208893D01*
X76694976Y-79255025D01*
X76741108Y-79305925D01*
X76782030Y-79361101D01*
X76817346Y-79420022D01*
X76846717Y-79482122D01*
X76869859Y-79546801D01*
X76886551Y-79613437D01*
X76896630Y-79681388D01*
X76900001Y-79750000D01*
X76900001Y-80250000D01*
X76896630Y-80318612D01*
X76886551Y-80386563D01*
X76869859Y-80453199D01*
X76846717Y-80517878D01*
X76817346Y-80579978D01*
X76782030Y-80638899D01*
X76741108Y-80694075D01*
X76694976Y-80744975D01*
X76644076Y-80791107D01*
X76588900Y-80832029D01*
X76529979Y-80867345D01*
X76467879Y-80896716D01*
X76403200Y-80919858D01*
X76336564Y-80936550D01*
X76268613Y-80946629D01*
X76200001Y-80950000D01*
X76199999Y-80950000D01*
X76131387Y-80946629D01*
X76063436Y-80936550D01*
X75996800Y-80919858D01*
X75932121Y-80896716D01*
X75870021Y-80867345D01*
X75811100Y-80832029D01*
X75755924Y-80791107D01*
X75705024Y-80744975D01*
X75658892Y-80694075D01*
X75617970Y-80638899D01*
X75582654Y-80579978D01*
X75553283Y-80517878D01*
X75530141Y-80453199D01*
X75513449Y-80386563D01*
X75503370Y-80318612D01*
X75499999Y-80250000D01*
X75499999Y-79750000D01*
X75503370Y-79681388D01*
X75513449Y-79613437D01*
X75530141Y-79546801D01*
X75553283Y-79482122D01*
X75582654Y-79420022D01*
X75617970Y-79361101D01*
X75658892Y-79305925D01*
X75705024Y-79255025D01*
X75755924Y-79208893D01*
X75811100Y-79167971D01*
X75870021Y-79132655D01*
X75932121Y-79103284D01*
X75996800Y-79080142D01*
X76063436Y-79063450D01*
X76131387Y-79053371D01*
X76199999Y-79050000D01*
X76200001Y-79050000D01*
X76268613Y-79053371D01*
X76268613Y-79053371D01*
G37*
D14*
X76200000Y-80000000D03*
D15*
X76500000Y-80000000D03*
D17*
X78150000Y-80400000D03*
X78150000Y-79600000D03*
D18*
X81000000Y-59500000D03*
D19*
X81000000Y-67000000D03*
D20*
X60700000Y-59500000D03*
X55660000Y-67000000D03*
X60700000Y-67000000D03*
X55660000Y-59500000D03*
D21*
X91950000Y-60000000D03*
X90050000Y-60000000D03*
X91000000Y-63000000D03*
D12*
X91962500Y-57500000D03*
X90037500Y-57500000D03*
D22*
X94140000Y-94930000D03*
X91600000Y-94930000D03*
X89060000Y-94930000D03*
X86520000Y-94930000D03*
X83980000Y-94930000D03*
X81440000Y-94930000D03*
X78900000Y-94930000D03*
X76360000Y-94930000D03*
X76360000Y-72070000D03*
X78900000Y-72070000D03*
X81440000Y-72070000D03*
X83980000Y-72070000D03*
X86520000Y-72070000D03*
X89060000Y-72070000D03*
X91600000Y-72070000D03*
X94140000Y-72070000D03*
D23*
X68300000Y-74095000D03*
X68300000Y-75365000D03*
X68300000Y-76635000D03*
X68300000Y-77905000D03*
X73700000Y-77905000D03*
X73700000Y-76635000D03*
X73700000Y-75365000D03*
X73700000Y-74095000D03*
D12*
X78037500Y-75500000D03*
X79962500Y-75500000D03*
X79537500Y-77250000D03*
X81462500Y-77250000D03*
D24*
X97250000Y-67750000D03*
D25*
X97250000Y-63940000D03*
X97250000Y-60130000D03*
X97250000Y-56320000D03*
X97250000Y-38570000D03*
X97250000Y-42380000D03*
X97250000Y-46190000D03*
D24*
X97250000Y-50000000D03*
X97250000Y-87500000D03*
D25*
X97250000Y-83690000D03*
X97250000Y-79880000D03*
D26*
X49000000Y-43500000D03*
D27*
X49000000Y-48500000D03*
X49000000Y-84500000D03*
D26*
X49000000Y-79500000D03*
D28*
X86250000Y-66000000D03*
X86250000Y-61000000D03*
M02*
